ISO-10303-21;
HEADER;
/* Generated by software containing ST-Developer
 * from STEP Tools, Inc. (www.steptools.com) 
 */

FILE_DESCRIPTION(
/* description */ (''),
/* implementation_level */ '2;1');

FILE_NAME(
/* name */ 'Case.step',
/* time_stamp */ '2026-06-26T22:16:16-04:00',
/* author */ (''),
/* organization */ (''),
/* preprocessor_version */ 'ST-DEVELOPER v20.1',
/* originating_system */ 'Autodesk Translation Framework v15.8.0.0',
/* authorisation */ '');

FILE_SCHEMA (('AUTOMOTIVE_DESIGN { 1 0 10303 214 3 1 1 }'));
ENDSEC;

DATA;
#10=MECHANICAL_DESIGN_GEOMETRIC_PRESENTATION_REPRESENTATION('',(#13),#1692);
#11=SHAPE_REPRESENTATION_RELATIONSHIP('SRR','None',#1699,#12);
#12=ADVANCED_BREP_SHAPE_REPRESENTATION('',(#14),#1691);
#13=STYLED_ITEM('',(#1708),#14);
#14=MANIFOLD_SOLID_BREP('Body1',#964);
#15=FACE_BOUND('',#202,.T.);
#16=FACE_BOUND('',#233,.T.);
#17=FACE_BOUND('',#235,.T.);
#18=FACE_BOUND('',#237,.T.);
#19=FACE_BOUND('',#239,.T.);
#20=FACE_BOUND('',#241,.T.);
#21=FACE_BOUND('',#243,.T.);
#22=FACE_BOUND('',#245,.T.);
#23=FACE_BOUND('',#247,.T.);
#24=FACE_BOUND('',#249,.T.);
#25=FACE_BOUND('',#266,.T.);
#26=FACE_BOUND('',#267,.T.);
#27=FACE_BOUND('',#268,.T.);
#28=FACE_BOUND('',#269,.T.);
#29=FACE_BOUND('',#270,.T.);
#30=FACE_BOUND('',#271,.T.);
#31=FACE_BOUND('',#272,.T.);
#32=FACE_BOUND('',#273,.T.);
#33=FACE_BOUND('',#274,.T.);
#34=FACE_BOUND('',#275,.T.);
#35=FACE_BOUND('',#276,.T.);
#36=FACE_BOUND('',#277,.T.);
#37=FACE_BOUND('',#278,.T.);
#38=CYLINDRICAL_SURFACE('',#985,4.);
#39=CYLINDRICAL_SURFACE('',#988,4.);
#40=CYLINDRICAL_SURFACE('',#993,1.75);
#41=CYLINDRICAL_SURFACE('',#997,3.00000000000001);
#42=CYLINDRICAL_SURFACE('',#1001,3.00000000000001);
#43=CYLINDRICAL_SURFACE('',#1027,1.75);
#44=CYLINDRICAL_SURFACE('',#1030,5.);
#45=CYLINDRICAL_SURFACE('',#1032,5.);
#46=CYLINDRICAL_SURFACE('',#1034,5.);
#47=CYLINDRICAL_SURFACE('',#1036,5.);
#48=CYLINDRICAL_SURFACE('',#1037,1.75);
#49=CYLINDRICAL_SURFACE('',#1039,1.75);
#50=CYLINDRICAL_SURFACE('',#1041,1.75);
#51=CYLINDRICAL_SURFACE('',#1043,1.75);
#52=CYLINDRICAL_SURFACE('',#1045,1.75);
#53=CYLINDRICAL_SURFACE('',#1047,1.75);
#54=CYLINDRICAL_SURFACE('',#1049,1.75);
#55=CYLINDRICAL_SURFACE('',#1051,1.75);
#56=CYLINDRICAL_SURFACE('',#1075,2.99999999999999);
#57=CYLINDRICAL_SURFACE('',#1077,3.00000000000001);
#58=CYLINDRICAL_SURFACE('',#1082,3.);
#59=CYLINDRICAL_SURFACE('',#1084,3.);
#60=CYLINDRICAL_SURFACE('',#1086,3.);
#61=CYLINDRICAL_SURFACE('',#1088,3.00000000000001);
#62=CYLINDRICAL_SURFACE('',#1090,3.00000000000001);
#63=CYLINDRICAL_SURFACE('',#1092,3.00000000000001);
#64=CYLINDRICAL_SURFACE('',#1094,3.00000000000001);
#65=CYLINDRICAL_SURFACE('',#1096,3.00000000000001);
#66=CYLINDRICAL_SURFACE('',#1098,3.00000000000001);
#67=CIRCLE('',#981,5.);
#68=CIRCLE('',#982,5.);
#69=CIRCLE('',#983,5.);
#70=CIRCLE('',#984,5.);
#71=CIRCLE('',#986,4.);
#72=CIRCLE('',#987,4.);
#73=CIRCLE('',#989,4.);
#74=CIRCLE('',#990,4.);
#75=CIRCLE('',#994,1.75);
#76=CIRCLE('',#995,1.75);
#77=CIRCLE('',#998,3.00000000000001);
#78=CIRCLE('',#999,3.00000000000001);
#79=CIRCLE('',#1002,3.00000000000001);
#80=CIRCLE('',#1003,3.00000000000001);
#81=CIRCLE('',#1005,1.75);
#82=CIRCLE('',#1007,5.);
#83=CIRCLE('',#1008,5.);
#84=CIRCLE('',#1009,5.);
#85=CIRCLE('',#1010,5.);
#86=CIRCLE('',#1012,1.75);
#87=CIRCLE('',#1014,1.75);
#88=CIRCLE('',#1016,1.75);
#89=CIRCLE('',#1018,1.75);
#90=CIRCLE('',#1020,1.75);
#91=CIRCLE('',#1022,1.75);
#92=CIRCLE('',#1024,1.75);
#93=CIRCLE('',#1026,1.75);
#94=CIRCLE('',#1028,1.75);
#95=CIRCLE('',#1038,1.75);
#96=CIRCLE('',#1040,1.75);
#97=CIRCLE('',#1042,1.75);
#98=CIRCLE('',#1044,1.75);
#99=CIRCLE('',#1046,1.75);
#100=CIRCLE('',#1048,1.75);
#101=CIRCLE('',#1050,1.75);
#102=CIRCLE('',#1052,1.75);
#103=CIRCLE('',#1054,2.99999999999999);
#104=CIRCLE('',#1056,3.00000000000001);
#105=CIRCLE('',#1058,3.);
#106=CIRCLE('',#1060,3.);
#107=CIRCLE('',#1062,3.);
#108=CIRCLE('',#1064,3.00000000000001);
#109=CIRCLE('',#1066,3.00000000000001);
#110=CIRCLE('',#1068,3.00000000000001);
#111=CIRCLE('',#1070,3.00000000000001);
#112=CIRCLE('',#1072,3.00000000000001);
#113=CIRCLE('',#1074,3.00000000000001);
#114=CIRCLE('',#1076,2.99999999999999);
#115=CIRCLE('',#1078,3.00000000000001);
#116=CIRCLE('',#1083,3.);
#117=CIRCLE('',#1085,3.);
#118=CIRCLE('',#1087,3.);
#119=CIRCLE('',#1089,3.00000000000001);
#120=CIRCLE('',#1091,3.00000000000001);
#121=CIRCLE('',#1093,3.00000000000001);
#122=CIRCLE('',#1095,3.00000000000001);
#123=CIRCLE('',#1097,3.00000000000001);
#124=CIRCLE('',#1099,3.00000000000001);
#125=FACE_OUTER_BOUND('',#191,.T.);
#126=FACE_OUTER_BOUND('',#192,.T.);
#127=FACE_OUTER_BOUND('',#193,.T.);
#128=FACE_OUTER_BOUND('',#194,.T.);
#129=FACE_OUTER_BOUND('',#195,.T.);
#130=FACE_OUTER_BOUND('',#196,.T.);
#131=FACE_OUTER_BOUND('',#197,.T.);
#132=FACE_OUTER_BOUND('',#198,.T.);
#133=FACE_OUTER_BOUND('',#199,.T.);
#134=FACE_OUTER_BOUND('',#200,.T.);
#135=FACE_OUTER_BOUND('',#201,.T.);
#136=FACE_OUTER_BOUND('',#203,.T.);
#137=FACE_OUTER_BOUND('',#204,.T.);
#138=FACE_OUTER_BOUND('',#205,.T.);
#139=FACE_OUTER_BOUND('',#206,.T.);
#140=FACE_OUTER_BOUND('',#207,.T.);
#141=FACE_OUTER_BOUND('',#208,.T.);
#142=FACE_OUTER_BOUND('',#209,.T.);
#143=FACE_OUTER_BOUND('',#210,.T.);
#144=FACE_OUTER_BOUND('',#211,.T.);
#145=FACE_OUTER_BOUND('',#212,.T.);
#146=FACE_OUTER_BOUND('',#213,.T.);
#147=FACE_OUTER_BOUND('',#214,.T.);
#148=FACE_OUTER_BOUND('',#215,.T.);
#149=FACE_OUTER_BOUND('',#216,.T.);
#150=FACE_OUTER_BOUND('',#217,.T.);
#151=FACE_OUTER_BOUND('',#218,.T.);
#152=FACE_OUTER_BOUND('',#219,.T.);
#153=FACE_OUTER_BOUND('',#220,.T.);
#154=FACE_OUTER_BOUND('',#221,.T.);
#155=FACE_OUTER_BOUND('',#222,.T.);
#156=FACE_OUTER_BOUND('',#223,.T.);
#157=FACE_OUTER_BOUND('',#224,.T.);
#158=FACE_OUTER_BOUND('',#225,.T.);
#159=FACE_OUTER_BOUND('',#226,.T.);
#160=FACE_OUTER_BOUND('',#227,.T.);
#161=FACE_OUTER_BOUND('',#228,.T.);
#162=FACE_OUTER_BOUND('',#229,.T.);
#163=FACE_OUTER_BOUND('',#230,.T.);
#164=FACE_OUTER_BOUND('',#231,.T.);
#165=FACE_OUTER_BOUND('',#232,.T.);
#166=FACE_OUTER_BOUND('',#234,.T.);
#167=FACE_OUTER_BOUND('',#236,.T.);
#168=FACE_OUTER_BOUND('',#238,.T.);
#169=FACE_OUTER_BOUND('',#240,.T.);
#170=FACE_OUTER_BOUND('',#242,.T.);
#171=FACE_OUTER_BOUND('',#244,.T.);
#172=FACE_OUTER_BOUND('',#246,.T.);
#173=FACE_OUTER_BOUND('',#248,.T.);
#174=FACE_OUTER_BOUND('',#250,.T.);
#175=FACE_OUTER_BOUND('',#251,.T.);
#176=FACE_OUTER_BOUND('',#252,.T.);
#177=FACE_OUTER_BOUND('',#253,.T.);
#178=FACE_OUTER_BOUND('',#254,.T.);
#179=FACE_OUTER_BOUND('',#255,.T.);
#180=FACE_OUTER_BOUND('',#256,.T.);
#181=FACE_OUTER_BOUND('',#257,.T.);
#182=FACE_OUTER_BOUND('',#258,.T.);
#183=FACE_OUTER_BOUND('',#259,.T.);
#184=FACE_OUTER_BOUND('',#260,.T.);
#185=FACE_OUTER_BOUND('',#261,.T.);
#186=FACE_OUTER_BOUND('',#262,.T.);
#187=FACE_OUTER_BOUND('',#263,.T.);
#188=FACE_OUTER_BOUND('',#264,.T.);
#189=FACE_OUTER_BOUND('',#265,.T.);
#190=FACE_OUTER_BOUND('',#279,.T.);
#191=EDGE_LOOP('',(#615,#616,#617,#618));
#192=EDGE_LOOP('',(#619,#620,#621,#622));
#193=EDGE_LOOP('',(#623,#624,#625,#626,#627,#628,#629,#630,#631,#632,#633,
#634,#635,#636,#637,#638));
#194=EDGE_LOOP('',(#639,#640,#641,#642));
#195=EDGE_LOOP('',(#643,#644,#645,#646));
#196=EDGE_LOOP('',(#647,#648,#649,#650,#651));
#197=EDGE_LOOP('',(#652,#653,#654,#655,#656));
#198=EDGE_LOOP('',(#657,#658,#659,#660));
#199=EDGE_LOOP('',(#661));
#200=EDGE_LOOP('',(#662,#663,#664,#665));
#201=EDGE_LOOP('',(#666));
#202=EDGE_LOOP('',(#667));
#203=EDGE_LOOP('',(#668,#669,#670,#671));
#204=EDGE_LOOP('',(#672));
#205=EDGE_LOOP('',(#673,#674,#675,#676,#677,#678,#679,#680));
#206=EDGE_LOOP('',(#681));
#207=EDGE_LOOP('',(#682));
#208=EDGE_LOOP('',(#683));
#209=EDGE_LOOP('',(#684));
#210=EDGE_LOOP('',(#685));
#211=EDGE_LOOP('',(#686));
#212=EDGE_LOOP('',(#687));
#213=EDGE_LOOP('',(#688));
#214=EDGE_LOOP('',(#689,#690,#691,#692));
#215=EDGE_LOOP('',(#693,#694,#695,#696));
#216=EDGE_LOOP('',(#697,#698,#699,#700));
#217=EDGE_LOOP('',(#701,#702,#703,#704));
#218=EDGE_LOOP('',(#705,#706,#707,#708));
#219=EDGE_LOOP('',(#709,#710,#711,#712));
#220=EDGE_LOOP('',(#713,#714,#715,#716));
#221=EDGE_LOOP('',(#717,#718,#719,#720,#721,#722,#723,#724,#725,#726));
#222=EDGE_LOOP('',(#727,#728,#729,#730));
#223=EDGE_LOOP('',(#731,#732,#733,#734));
#224=EDGE_LOOP('',(#735,#736,#737,#738));
#225=EDGE_LOOP('',(#739,#740,#741,#742));
#226=EDGE_LOOP('',(#743,#744,#745,#746));
#227=EDGE_LOOP('',(#747,#748,#749,#750));
#228=EDGE_LOOP('',(#751,#752,#753,#754));
#229=EDGE_LOOP('',(#755,#756,#757,#758));
#230=EDGE_LOOP('',(#759,#760,#761,#762));
#231=EDGE_LOOP('',(#763));
#232=EDGE_LOOP('',(#764));
#233=EDGE_LOOP('',(#765));
#234=EDGE_LOOP('',(#766));
#235=EDGE_LOOP('',(#767));
#236=EDGE_LOOP('',(#768));
#237=EDGE_LOOP('',(#769));
#238=EDGE_LOOP('',(#770));
#239=EDGE_LOOP('',(#771));
#240=EDGE_LOOP('',(#772));
#241=EDGE_LOOP('',(#773));
#242=EDGE_LOOP('',(#774));
#243=EDGE_LOOP('',(#775));
#244=EDGE_LOOP('',(#776));
#245=EDGE_LOOP('',(#777));
#246=EDGE_LOOP('',(#778));
#247=EDGE_LOOP('',(#779));
#248=EDGE_LOOP('',(#780));
#249=EDGE_LOOP('',(#781));
#250=EDGE_LOOP('',(#782));
#251=EDGE_LOOP('',(#783,#784,#785,#786));
#252=EDGE_LOOP('',(#787,#788,#789,#790));
#253=EDGE_LOOP('',(#791,#792,#793,#794));
#254=EDGE_LOOP('',(#795,#796,#797,#798));
#255=EDGE_LOOP('',(#799,#800,#801,#802));
#256=EDGE_LOOP('',(#803,#804,#805,#806));
#257=EDGE_LOOP('',(#807,#808,#809,#810));
#258=EDGE_LOOP('',(#811,#812,#813,#814));
#259=EDGE_LOOP('',(#815,#816,#817,#818));
#260=EDGE_LOOP('',(#819,#820,#821,#822));
#261=EDGE_LOOP('',(#823,#824,#825,#826));
#262=EDGE_LOOP('',(#827,#828,#829,#830));
#263=EDGE_LOOP('',(#831,#832,#833,#834));
#264=EDGE_LOOP('',(#835,#836,#837,#838));
#265=EDGE_LOOP('',(#839,#840,#841,#842,#843,#844,#845,#846));
#266=EDGE_LOOP('',(#847));
#267=EDGE_LOOP('',(#848));
#268=EDGE_LOOP('',(#849));
#269=EDGE_LOOP('',(#850));
#270=EDGE_LOOP('',(#851));
#271=EDGE_LOOP('',(#852));
#272=EDGE_LOOP('',(#853));
#273=EDGE_LOOP('',(#854));
#274=EDGE_LOOP('',(#855));
#275=EDGE_LOOP('',(#856));
#276=EDGE_LOOP('',(#857));
#277=EDGE_LOOP('',(#858));
#278=EDGE_LOOP('',(#859));
#279=EDGE_LOOP('',(#860));
#280=LINE('',#1421,#345);
#281=LINE('',#1423,#346);
#282=LINE('',#1425,#347);
#283=LINE('',#1426,#348);
#284=LINE('',#1430,#349);
#285=LINE('',#1432,#350);
#286=LINE('',#1434,#351);
#287=LINE('',#1435,#352);
#288=LINE('',#1438,#353);
#289=LINE('',#1440,#354);
#290=LINE('',#1442,#355);
#291=LINE('',#1444,#356);
#292=LINE('',#1445,#357);
#293=LINE('',#1447,#358);
#294=LINE('',#1451,#359);
#295=LINE('',#1455,#360);
#296=LINE('',#1459,#361);
#297=LINE('',#1462,#362);
#298=LINE('',#1467,#363);
#299=LINE('',#1473,#364);
#300=LINE('',#1477,#365);
#301=LINE('',#1478,#366);
#302=LINE('',#1481,#367);
#303=LINE('',#1482,#368);
#304=LINE('',#1487,#369);
#305=LINE('',#1494,#370);
#306=LINE('',#1501,#371);
#307=LINE('',#1511,#372);
#308=LINE('',#1515,#373);
#309=LINE('',#1519,#374);
#310=LINE('',#1522,#375);
#311=LINE('',#1550,#376);
#312=LINE('',#1552,#377);
#313=LINE('',#1553,#378);
#314=LINE('',#1555,#379);
#315=LINE('',#1557,#380);
#316=LINE('',#1559,#381);
#317=LINE('',#1561,#382);
#318=LINE('',#1563,#383);
#319=LINE('',#1565,#384);
#320=LINE('',#1566,#385);
#321=LINE('',#1571,#386);
#322=LINE('',#1575,#387);
#323=LINE('',#1579,#388);
#324=LINE('',#1583,#389);
#325=LINE('',#1587,#390);
#326=LINE('',#1591,#391);
#327=LINE('',#1595,#392);
#328=LINE('',#1599,#393);
#329=LINE('',#1635,#394);
#330=LINE('',#1640,#395);
#331=LINE('',#1644,#396);
#332=LINE('',#1645,#397);
#333=LINE('',#1646,#398);
#334=LINE('',#1648,#399);
#335=LINE('',#1650,#400);
#336=LINE('',#1653,#401);
#337=LINE('',#1658,#402);
#338=LINE('',#1662,#403);
#339=LINE('',#1666,#404);
#340=LINE('',#1670,#405);
#341=LINE('',#1674,#406);
#342=LINE('',#1678,#407);
#343=LINE('',#1682,#408);
#344=LINE('',#1685,#409);
#345=VECTOR('',#1106,10.);
#346=VECTOR('',#1107,10.);
#347=VECTOR('',#1108,10.);
#348=VECTOR('',#1109,10.);
#349=VECTOR('',#1112,10.);
#350=VECTOR('',#1113,10.);
#351=VECTOR('',#1114,10.);
#352=VECTOR('',#1115,10.);
#353=VECTOR('',#1118,10.);
#354=VECTOR('',#1119,10.);
#355=VECTOR('',#1120,10.);
#356=VECTOR('',#1121,10.);
#357=VECTOR('',#1122,10.);
#358=VECTOR('',#1123,10.);
#359=VECTOR('',#1126,10.);
#360=VECTOR('',#1129,10.);
#361=VECTOR('',#1132,10.);
#362=VECTOR('',#1135,10.);
#363=VECTOR('',#1140,10.);
#364=VECTOR('',#1147,10.);
#365=VECTOR('',#1152,10.);
#366=VECTOR('',#1153,10.);
#367=VECTOR('',#1156,10.);
#368=VECTOR('',#1157,10.);
#369=VECTOR('',#1162,1.75);
#370=VECTOR('',#1171,3.00000000000001);
#371=VECTOR('',#1180,3.00000000000001);
#372=VECTOR('',#1191,10.);
#373=VECTOR('',#1194,10.);
#374=VECTOR('',#1197,10.);
#375=VECTOR('',#1200,10.);
#376=VECTOR('',#1237,1.75);
#377=VECTOR('',#1240,10.);
#378=VECTOR('',#1241,10.);
#379=VECTOR('',#1244,10.);
#380=VECTOR('',#1247,10.);
#381=VECTOR('',#1250,10.);
#382=VECTOR('',#1253,10.);
#383=VECTOR('',#1256,10.);
#384=VECTOR('',#1259,10.);
#385=VECTOR('',#1260,10.);
#386=VECTOR('',#1267,1.75);
#387=VECTOR('',#1272,1.75);
#388=VECTOR('',#1277,1.75);
#389=VECTOR('',#1282,1.75);
#390=VECTOR('',#1287,1.75);
#391=VECTOR('',#1292,1.75);
#392=VECTOR('',#1297,1.75);
#393=VECTOR('',#1302,1.75);
#394=VECTOR('',#1349,2.99999999999999);
#395=VECTOR('',#1356,3.00000000000001);
#396=VECTOR('',#1359,10.);
#397=VECTOR('',#1360,10.);
#398=VECTOR('',#1361,10.);
#399=VECTOR('',#1364,10.);
#400=VECTOR('',#1367,10.);
#401=VECTOR('',#1370,3.);
#402=VECTOR('',#1377,3.);
#403=VECTOR('',#1382,3.);
#404=VECTOR('',#1387,3.00000000000001);
#405=VECTOR('',#1392,3.00000000000001);
#406=VECTOR('',#1397,3.00000000000001);
#407=VECTOR('',#1402,3.00000000000001);
#408=VECTOR('',#1407,3.00000000000001);
#409=VECTOR('',#1410,3.00000000000001);
#410=VERTEX_POINT('',#1419);
#411=VERTEX_POINT('',#1420);
#412=VERTEX_POINT('',#1422);
#413=VERTEX_POINT('',#1424);
#414=VERTEX_POINT('',#1428);
#415=VERTEX_POINT('',#1429);
#416=VERTEX_POINT('',#1431);
#417=VERTEX_POINT('',#1433);
#418=VERTEX_POINT('',#1437);
#419=VERTEX_POINT('',#1439);
#420=VERTEX_POINT('',#1441);
#421=VERTEX_POINT('',#1443);
#422=VERTEX_POINT('',#1446);
#423=VERTEX_POINT('',#1448);
#424=VERTEX_POINT('',#1450);
#425=VERTEX_POINT('',#1452);
#426=VERTEX_POINT('',#1454);
#427=VERTEX_POINT('',#1456);
#428=VERTEX_POINT('',#1458);
#429=VERTEX_POINT('',#1460);
#430=VERTEX_POINT('',#1464);
#431=VERTEX_POINT('',#1466);
#432=VERTEX_POINT('',#1470);
#433=VERTEX_POINT('',#1472);
#434=VERTEX_POINT('',#1476);
#435=VERTEX_POINT('',#1480);
#436=VERTEX_POINT('',#1484);
#437=VERTEX_POINT('',#1486);
#438=VERTEX_POINT('',#1491);
#439=VERTEX_POINT('',#1493);
#440=VERTEX_POINT('',#1498);
#441=VERTEX_POINT('',#1500);
#442=VERTEX_POINT('',#1504);
#443=VERTEX_POINT('',#1507);
#444=VERTEX_POINT('',#1508);
#445=VERTEX_POINT('',#1510);
#446=VERTEX_POINT('',#1512);
#447=VERTEX_POINT('',#1514);
#448=VERTEX_POINT('',#1516);
#449=VERTEX_POINT('',#1518);
#450=VERTEX_POINT('',#1520);
#451=VERTEX_POINT('',#1524);
#452=VERTEX_POINT('',#1527);
#453=VERTEX_POINT('',#1530);
#454=VERTEX_POINT('',#1533);
#455=VERTEX_POINT('',#1536);
#456=VERTEX_POINT('',#1539);
#457=VERTEX_POINT('',#1542);
#458=VERTEX_POINT('',#1545);
#459=VERTEX_POINT('',#1548);
#460=VERTEX_POINT('',#1569);
#461=VERTEX_POINT('',#1573);
#462=VERTEX_POINT('',#1577);
#463=VERTEX_POINT('',#1581);
#464=VERTEX_POINT('',#1585);
#465=VERTEX_POINT('',#1589);
#466=VERTEX_POINT('',#1593);
#467=VERTEX_POINT('',#1597);
#468=VERTEX_POINT('',#1601);
#469=VERTEX_POINT('',#1604);
#470=VERTEX_POINT('',#1607);
#471=VERTEX_POINT('',#1610);
#472=VERTEX_POINT('',#1613);
#473=VERTEX_POINT('',#1616);
#474=VERTEX_POINT('',#1619);
#475=VERTEX_POINT('',#1622);
#476=VERTEX_POINT('',#1625);
#477=VERTEX_POINT('',#1628);
#478=VERTEX_POINT('',#1631);
#479=VERTEX_POINT('',#1634);
#480=VERTEX_POINT('',#1638);
#481=VERTEX_POINT('',#1642);
#482=VERTEX_POINT('',#1643);
#483=VERTEX_POINT('',#1652);
#484=VERTEX_POINT('',#1656);
#485=VERTEX_POINT('',#1660);
#486=VERTEX_POINT('',#1664);
#487=VERTEX_POINT('',#1668);
#488=VERTEX_POINT('',#1672);
#489=VERTEX_POINT('',#1676);
#490=VERTEX_POINT('',#1680);
#491=VERTEX_POINT('',#1684);
#492=EDGE_CURVE('',#410,#411,#280,.T.);
#493=EDGE_CURVE('',#411,#412,#281,.T.);
#494=EDGE_CURVE('',#413,#412,#282,.T.);
#495=EDGE_CURVE('',#410,#413,#283,.T.);
#496=EDGE_CURVE('',#414,#415,#284,.T.);
#497=EDGE_CURVE('',#415,#416,#285,.T.);
#498=EDGE_CURVE('',#417,#416,#286,.T.);
#499=EDGE_CURVE('',#414,#417,#287,.T.);
#500=EDGE_CURVE('',#416,#418,#288,.T.);
#501=EDGE_CURVE('',#418,#419,#289,.T.);
#502=EDGE_CURVE('',#419,#420,#290,.T.);
#503=EDGE_CURVE('',#420,#421,#291,.T.);
#504=EDGE_CURVE('',#421,#413,#292,.T.);
#505=EDGE_CURVE('',#412,#422,#293,.T.);
#506=EDGE_CURVE('',#422,#423,#67,.T.);
#507=EDGE_CURVE('',#423,#424,#294,.T.);
#508=EDGE_CURVE('',#424,#425,#68,.T.);
#509=EDGE_CURVE('',#425,#426,#295,.T.);
#510=EDGE_CURVE('',#426,#427,#69,.T.);
#511=EDGE_CURVE('',#427,#428,#296,.T.);
#512=EDGE_CURVE('',#428,#429,#70,.T.);
#513=EDGE_CURVE('',#429,#417,#297,.T.);
#514=EDGE_CURVE('',#430,#414,#71,.T.);
#515=EDGE_CURVE('',#430,#431,#298,.T.);
#516=EDGE_CURVE('',#415,#431,#72,.T.);
#517=EDGE_CURVE('',#432,#410,#73,.T.);
#518=EDGE_CURVE('',#433,#432,#299,.T.);
#519=EDGE_CURVE('',#411,#433,#74,.T.);
#520=EDGE_CURVE('',#421,#434,#300,.T.);
#521=EDGE_CURVE('',#434,#432,#301,.T.);
#522=EDGE_CURVE('',#431,#435,#302,.T.);
#523=EDGE_CURVE('',#435,#418,#303,.T.);
#524=EDGE_CURVE('',#436,#436,#75,.T.);
#525=EDGE_CURVE('',#436,#437,#304,.T.);
#526=EDGE_CURVE('',#437,#437,#76,.T.);
#527=EDGE_CURVE('',#438,#438,#77,.T.);
#528=EDGE_CURVE('',#438,#439,#305,.T.);
#529=EDGE_CURVE('',#439,#439,#78,.T.);
#530=EDGE_CURVE('',#440,#440,#79,.T.);
#531=EDGE_CURVE('',#440,#441,#306,.T.);
#532=EDGE_CURVE('',#441,#441,#80,.T.);
#533=EDGE_CURVE('',#442,#442,#81,.T.);
#534=EDGE_CURVE('',#443,#444,#82,.T.);
#535=EDGE_CURVE('',#445,#443,#307,.T.);
#536=EDGE_CURVE('',#446,#445,#83,.T.);
#537=EDGE_CURVE('',#446,#447,#308,.T.);
#538=EDGE_CURVE('',#448,#447,#84,.T.);
#539=EDGE_CURVE('',#448,#449,#309,.T.);
#540=EDGE_CURVE('',#450,#449,#85,.T.);
#541=EDGE_CURVE('',#450,#444,#310,.T.);
#542=EDGE_CURVE('',#451,#451,#86,.T.);
#543=EDGE_CURVE('',#452,#452,#87,.T.);
#544=EDGE_CURVE('',#453,#453,#88,.T.);
#545=EDGE_CURVE('',#454,#454,#89,.T.);
#546=EDGE_CURVE('',#455,#455,#90,.T.);
#547=EDGE_CURVE('',#456,#456,#91,.T.);
#548=EDGE_CURVE('',#457,#457,#92,.T.);
#549=EDGE_CURVE('',#458,#458,#93,.T.);
#550=EDGE_CURVE('',#459,#459,#94,.T.);
#551=EDGE_CURVE('',#459,#442,#311,.T.);
#552=EDGE_CURVE('',#428,#446,#312,.T.);
#553=EDGE_CURVE('',#447,#427,#313,.T.);
#554=EDGE_CURVE('',#426,#448,#314,.T.);
#555=EDGE_CURVE('',#449,#425,#315,.T.);
#556=EDGE_CURVE('',#424,#450,#316,.T.);
#557=EDGE_CURVE('',#444,#423,#317,.T.);
#558=EDGE_CURVE('',#422,#443,#318,.T.);
#559=EDGE_CURVE('',#445,#429,#319,.T.);
#560=EDGE_CURVE('',#433,#430,#320,.T.);
#561=EDGE_CURVE('',#460,#460,#95,.T.);
#562=EDGE_CURVE('',#460,#451,#321,.T.);
#563=EDGE_CURVE('',#461,#461,#96,.T.);
#564=EDGE_CURVE('',#461,#452,#322,.T.);
#565=EDGE_CURVE('',#462,#462,#97,.T.);
#566=EDGE_CURVE('',#462,#453,#323,.T.);
#567=EDGE_CURVE('',#463,#463,#98,.T.);
#568=EDGE_CURVE('',#463,#454,#324,.T.);
#569=EDGE_CURVE('',#464,#464,#99,.T.);
#570=EDGE_CURVE('',#464,#455,#325,.T.);
#571=EDGE_CURVE('',#465,#465,#100,.T.);
#572=EDGE_CURVE('',#465,#456,#326,.T.);
#573=EDGE_CURVE('',#466,#466,#101,.T.);
#574=EDGE_CURVE('',#466,#457,#327,.T.);
#575=EDGE_CURVE('',#467,#467,#102,.T.);
#576=EDGE_CURVE('',#467,#458,#328,.T.);
#577=EDGE_CURVE('',#468,#468,#103,.T.);
#578=EDGE_CURVE('',#469,#469,#104,.T.);
#579=EDGE_CURVE('',#470,#470,#105,.T.);
#580=EDGE_CURVE('',#471,#471,#106,.T.);
#581=EDGE_CURVE('',#472,#472,#107,.T.);
#582=EDGE_CURVE('',#473,#473,#108,.T.);
#583=EDGE_CURVE('',#474,#474,#109,.T.);
#584=EDGE_CURVE('',#475,#475,#110,.T.);
#585=EDGE_CURVE('',#476,#476,#111,.T.);
#586=EDGE_CURVE('',#477,#477,#112,.T.);
#587=EDGE_CURVE('',#478,#478,#113,.T.);
#588=EDGE_CURVE('',#468,#479,#329,.T.);
#589=EDGE_CURVE('',#479,#479,#114,.T.);
#590=EDGE_CURVE('',#480,#480,#115,.T.);
#591=EDGE_CURVE('',#480,#469,#330,.T.);
#592=EDGE_CURVE('',#481,#482,#331,.T.);
#593=EDGE_CURVE('',#420,#482,#332,.T.);
#594=EDGE_CURVE('',#419,#481,#333,.T.);
#595=EDGE_CURVE('',#482,#434,#334,.T.);
#596=EDGE_CURVE('',#435,#481,#335,.T.);
#597=EDGE_CURVE('',#470,#483,#336,.T.);
#598=EDGE_CURVE('',#483,#483,#116,.T.);
#599=EDGE_CURVE('',#484,#484,#117,.T.);
#600=EDGE_CURVE('',#484,#471,#337,.T.);
#601=EDGE_CURVE('',#485,#485,#118,.T.);
#602=EDGE_CURVE('',#485,#472,#338,.T.);
#603=EDGE_CURVE('',#486,#486,#119,.T.);
#604=EDGE_CURVE('',#486,#473,#339,.T.);
#605=EDGE_CURVE('',#487,#487,#120,.T.);
#606=EDGE_CURVE('',#487,#474,#340,.T.);
#607=EDGE_CURVE('',#488,#488,#121,.T.);
#608=EDGE_CURVE('',#488,#475,#341,.T.);
#609=EDGE_CURVE('',#489,#489,#122,.T.);
#610=EDGE_CURVE('',#489,#476,#342,.T.);
#611=EDGE_CURVE('',#490,#490,#123,.T.);
#612=EDGE_CURVE('',#490,#477,#343,.T.);
#613=EDGE_CURVE('',#478,#491,#344,.T.);
#614=EDGE_CURVE('',#491,#491,#124,.T.);
#615=ORIENTED_EDGE('',*,*,#492,.T.);
#616=ORIENTED_EDGE('',*,*,#493,.T.);
#617=ORIENTED_EDGE('',*,*,#494,.F.);
#618=ORIENTED_EDGE('',*,*,#495,.F.);
#619=ORIENTED_EDGE('',*,*,#496,.T.);
#620=ORIENTED_EDGE('',*,*,#497,.T.);
#621=ORIENTED_EDGE('',*,*,#498,.F.);
#622=ORIENTED_EDGE('',*,*,#499,.F.);
#623=ORIENTED_EDGE('',*,*,#498,.T.);
#624=ORIENTED_EDGE('',*,*,#500,.T.);
#625=ORIENTED_EDGE('',*,*,#501,.T.);
#626=ORIENTED_EDGE('',*,*,#502,.T.);
#627=ORIENTED_EDGE('',*,*,#503,.T.);
#628=ORIENTED_EDGE('',*,*,#504,.T.);
#629=ORIENTED_EDGE('',*,*,#494,.T.);
#630=ORIENTED_EDGE('',*,*,#505,.T.);
#631=ORIENTED_EDGE('',*,*,#506,.T.);
#632=ORIENTED_EDGE('',*,*,#507,.T.);
#633=ORIENTED_EDGE('',*,*,#508,.T.);
#634=ORIENTED_EDGE('',*,*,#509,.T.);
#635=ORIENTED_EDGE('',*,*,#510,.T.);
#636=ORIENTED_EDGE('',*,*,#511,.T.);
#637=ORIENTED_EDGE('',*,*,#512,.T.);
#638=ORIENTED_EDGE('',*,*,#513,.T.);
#639=ORIENTED_EDGE('',*,*,#496,.F.);
#640=ORIENTED_EDGE('',*,*,#514,.F.);
#641=ORIENTED_EDGE('',*,*,#515,.T.);
#642=ORIENTED_EDGE('',*,*,#516,.F.);
#643=ORIENTED_EDGE('',*,*,#492,.F.);
#644=ORIENTED_EDGE('',*,*,#517,.F.);
#645=ORIENTED_EDGE('',*,*,#518,.F.);
#646=ORIENTED_EDGE('',*,*,#519,.F.);
#647=ORIENTED_EDGE('',*,*,#517,.T.);
#648=ORIENTED_EDGE('',*,*,#495,.T.);
#649=ORIENTED_EDGE('',*,*,#504,.F.);
#650=ORIENTED_EDGE('',*,*,#520,.T.);
#651=ORIENTED_EDGE('',*,*,#521,.T.);
#652=ORIENTED_EDGE('',*,*,#516,.T.);
#653=ORIENTED_EDGE('',*,*,#522,.T.);
#654=ORIENTED_EDGE('',*,*,#523,.T.);
#655=ORIENTED_EDGE('',*,*,#500,.F.);
#656=ORIENTED_EDGE('',*,*,#497,.F.);
#657=ORIENTED_EDGE('',*,*,#524,.F.);
#658=ORIENTED_EDGE('',*,*,#525,.T.);
#659=ORIENTED_EDGE('',*,*,#526,.T.);
#660=ORIENTED_EDGE('',*,*,#525,.F.);
#661=ORIENTED_EDGE('',*,*,#526,.F.);
#662=ORIENTED_EDGE('',*,*,#527,.F.);
#663=ORIENTED_EDGE('',*,*,#528,.T.);
#664=ORIENTED_EDGE('',*,*,#529,.F.);
#665=ORIENTED_EDGE('',*,*,#528,.F.);
#666=ORIENTED_EDGE('',*,*,#527,.T.);
#667=ORIENTED_EDGE('',*,*,#524,.T.);
#668=ORIENTED_EDGE('',*,*,#530,.F.);
#669=ORIENTED_EDGE('',*,*,#531,.T.);
#670=ORIENTED_EDGE('',*,*,#532,.F.);
#671=ORIENTED_EDGE('',*,*,#531,.F.);
#672=ORIENTED_EDGE('',*,*,#533,.F.);
#673=ORIENTED_EDGE('',*,*,#534,.F.);
#674=ORIENTED_EDGE('',*,*,#535,.F.);
#675=ORIENTED_EDGE('',*,*,#536,.F.);
#676=ORIENTED_EDGE('',*,*,#537,.T.);
#677=ORIENTED_EDGE('',*,*,#538,.F.);
#678=ORIENTED_EDGE('',*,*,#539,.T.);
#679=ORIENTED_EDGE('',*,*,#540,.F.);
#680=ORIENTED_EDGE('',*,*,#541,.T.);
#681=ORIENTED_EDGE('',*,*,#542,.F.);
#682=ORIENTED_EDGE('',*,*,#543,.F.);
#683=ORIENTED_EDGE('',*,*,#544,.F.);
#684=ORIENTED_EDGE('',*,*,#545,.F.);
#685=ORIENTED_EDGE('',*,*,#546,.F.);
#686=ORIENTED_EDGE('',*,*,#547,.F.);
#687=ORIENTED_EDGE('',*,*,#548,.F.);
#688=ORIENTED_EDGE('',*,*,#549,.F.);
#689=ORIENTED_EDGE('',*,*,#550,.F.);
#690=ORIENTED_EDGE('',*,*,#551,.T.);
#691=ORIENTED_EDGE('',*,*,#533,.T.);
#692=ORIENTED_EDGE('',*,*,#551,.F.);
#693=ORIENTED_EDGE('',*,*,#552,.F.);
#694=ORIENTED_EDGE('',*,*,#511,.F.);
#695=ORIENTED_EDGE('',*,*,#553,.F.);
#696=ORIENTED_EDGE('',*,*,#537,.F.);
#697=ORIENTED_EDGE('',*,*,#554,.T.);
#698=ORIENTED_EDGE('',*,*,#538,.T.);
#699=ORIENTED_EDGE('',*,*,#553,.T.);
#700=ORIENTED_EDGE('',*,*,#510,.F.);
#701=ORIENTED_EDGE('',*,*,#555,.F.);
#702=ORIENTED_EDGE('',*,*,#539,.F.);
#703=ORIENTED_EDGE('',*,*,#554,.F.);
#704=ORIENTED_EDGE('',*,*,#509,.F.);
#705=ORIENTED_EDGE('',*,*,#556,.T.);
#706=ORIENTED_EDGE('',*,*,#540,.T.);
#707=ORIENTED_EDGE('',*,*,#555,.T.);
#708=ORIENTED_EDGE('',*,*,#508,.F.);
#709=ORIENTED_EDGE('',*,*,#557,.F.);
#710=ORIENTED_EDGE('',*,*,#541,.F.);
#711=ORIENTED_EDGE('',*,*,#556,.F.);
#712=ORIENTED_EDGE('',*,*,#507,.F.);
#713=ORIENTED_EDGE('',*,*,#558,.T.);
#714=ORIENTED_EDGE('',*,*,#534,.T.);
#715=ORIENTED_EDGE('',*,*,#557,.T.);
#716=ORIENTED_EDGE('',*,*,#506,.F.);
#717=ORIENTED_EDGE('',*,*,#514,.T.);
#718=ORIENTED_EDGE('',*,*,#499,.T.);
#719=ORIENTED_EDGE('',*,*,#513,.F.);
#720=ORIENTED_EDGE('',*,*,#559,.F.);
#721=ORIENTED_EDGE('',*,*,#535,.T.);
#722=ORIENTED_EDGE('',*,*,#558,.F.);
#723=ORIENTED_EDGE('',*,*,#505,.F.);
#724=ORIENTED_EDGE('',*,*,#493,.F.);
#725=ORIENTED_EDGE('',*,*,#519,.T.);
#726=ORIENTED_EDGE('',*,*,#560,.T.);
#727=ORIENTED_EDGE('',*,*,#536,.T.);
#728=ORIENTED_EDGE('',*,*,#559,.T.);
#729=ORIENTED_EDGE('',*,*,#512,.F.);
#730=ORIENTED_EDGE('',*,*,#552,.T.);
#731=ORIENTED_EDGE('',*,*,#561,.F.);
#732=ORIENTED_EDGE('',*,*,#562,.T.);
#733=ORIENTED_EDGE('',*,*,#542,.T.);
#734=ORIENTED_EDGE('',*,*,#562,.F.);
#735=ORIENTED_EDGE('',*,*,#563,.F.);
#736=ORIENTED_EDGE('',*,*,#564,.T.);
#737=ORIENTED_EDGE('',*,*,#543,.T.);
#738=ORIENTED_EDGE('',*,*,#564,.F.);
#739=ORIENTED_EDGE('',*,*,#565,.F.);
#740=ORIENTED_EDGE('',*,*,#566,.T.);
#741=ORIENTED_EDGE('',*,*,#544,.T.);
#742=ORIENTED_EDGE('',*,*,#566,.F.);
#743=ORIENTED_EDGE('',*,*,#567,.F.);
#744=ORIENTED_EDGE('',*,*,#568,.T.);
#745=ORIENTED_EDGE('',*,*,#545,.T.);
#746=ORIENTED_EDGE('',*,*,#568,.F.);
#747=ORIENTED_EDGE('',*,*,#569,.F.);
#748=ORIENTED_EDGE('',*,*,#570,.T.);
#749=ORIENTED_EDGE('',*,*,#546,.T.);
#750=ORIENTED_EDGE('',*,*,#570,.F.);
#751=ORIENTED_EDGE('',*,*,#571,.F.);
#752=ORIENTED_EDGE('',*,*,#572,.T.);
#753=ORIENTED_EDGE('',*,*,#547,.T.);
#754=ORIENTED_EDGE('',*,*,#572,.F.);
#755=ORIENTED_EDGE('',*,*,#573,.F.);
#756=ORIENTED_EDGE('',*,*,#574,.T.);
#757=ORIENTED_EDGE('',*,*,#548,.T.);
#758=ORIENTED_EDGE('',*,*,#574,.F.);
#759=ORIENTED_EDGE('',*,*,#575,.F.);
#760=ORIENTED_EDGE('',*,*,#576,.T.);
#761=ORIENTED_EDGE('',*,*,#549,.T.);
#762=ORIENTED_EDGE('',*,*,#576,.F.);
#763=ORIENTED_EDGE('',*,*,#577,.T.);
#764=ORIENTED_EDGE('',*,*,#578,.T.);
#765=ORIENTED_EDGE('',*,*,#550,.T.);
#766=ORIENTED_EDGE('',*,*,#579,.T.);
#767=ORIENTED_EDGE('',*,*,#561,.T.);
#768=ORIENTED_EDGE('',*,*,#580,.T.);
#769=ORIENTED_EDGE('',*,*,#563,.T.);
#770=ORIENTED_EDGE('',*,*,#581,.T.);
#771=ORIENTED_EDGE('',*,*,#565,.T.);
#772=ORIENTED_EDGE('',*,*,#582,.T.);
#773=ORIENTED_EDGE('',*,*,#567,.T.);
#774=ORIENTED_EDGE('',*,*,#583,.T.);
#775=ORIENTED_EDGE('',*,*,#569,.T.);
#776=ORIENTED_EDGE('',*,*,#584,.T.);
#777=ORIENTED_EDGE('',*,*,#571,.T.);
#778=ORIENTED_EDGE('',*,*,#585,.T.);
#779=ORIENTED_EDGE('',*,*,#573,.T.);
#780=ORIENTED_EDGE('',*,*,#586,.T.);
#781=ORIENTED_EDGE('',*,*,#575,.T.);
#782=ORIENTED_EDGE('',*,*,#587,.T.);
#783=ORIENTED_EDGE('',*,*,#577,.F.);
#784=ORIENTED_EDGE('',*,*,#588,.T.);
#785=ORIENTED_EDGE('',*,*,#589,.F.);
#786=ORIENTED_EDGE('',*,*,#588,.F.);
#787=ORIENTED_EDGE('',*,*,#590,.F.);
#788=ORIENTED_EDGE('',*,*,#591,.T.);
#789=ORIENTED_EDGE('',*,*,#578,.F.);
#790=ORIENTED_EDGE('',*,*,#591,.F.);
#791=ORIENTED_EDGE('',*,*,#592,.T.);
#792=ORIENTED_EDGE('',*,*,#593,.F.);
#793=ORIENTED_EDGE('',*,*,#502,.F.);
#794=ORIENTED_EDGE('',*,*,#594,.T.);
#795=ORIENTED_EDGE('',*,*,#595,.T.);
#796=ORIENTED_EDGE('',*,*,#520,.F.);
#797=ORIENTED_EDGE('',*,*,#503,.F.);
#798=ORIENTED_EDGE('',*,*,#593,.T.);
#799=ORIENTED_EDGE('',*,*,#596,.T.);
#800=ORIENTED_EDGE('',*,*,#594,.F.);
#801=ORIENTED_EDGE('',*,*,#501,.F.);
#802=ORIENTED_EDGE('',*,*,#523,.F.);
#803=ORIENTED_EDGE('',*,*,#579,.F.);
#804=ORIENTED_EDGE('',*,*,#597,.T.);
#805=ORIENTED_EDGE('',*,*,#598,.F.);
#806=ORIENTED_EDGE('',*,*,#597,.F.);
#807=ORIENTED_EDGE('',*,*,#599,.F.);
#808=ORIENTED_EDGE('',*,*,#600,.T.);
#809=ORIENTED_EDGE('',*,*,#580,.F.);
#810=ORIENTED_EDGE('',*,*,#600,.F.);
#811=ORIENTED_EDGE('',*,*,#601,.F.);
#812=ORIENTED_EDGE('',*,*,#602,.T.);
#813=ORIENTED_EDGE('',*,*,#581,.F.);
#814=ORIENTED_EDGE('',*,*,#602,.F.);
#815=ORIENTED_EDGE('',*,*,#603,.F.);
#816=ORIENTED_EDGE('',*,*,#604,.T.);
#817=ORIENTED_EDGE('',*,*,#582,.F.);
#818=ORIENTED_EDGE('',*,*,#604,.F.);
#819=ORIENTED_EDGE('',*,*,#605,.F.);
#820=ORIENTED_EDGE('',*,*,#606,.T.);
#821=ORIENTED_EDGE('',*,*,#583,.F.);
#822=ORIENTED_EDGE('',*,*,#606,.F.);
#823=ORIENTED_EDGE('',*,*,#607,.F.);
#824=ORIENTED_EDGE('',*,*,#608,.T.);
#825=ORIENTED_EDGE('',*,*,#584,.F.);
#826=ORIENTED_EDGE('',*,*,#608,.F.);
#827=ORIENTED_EDGE('',*,*,#609,.F.);
#828=ORIENTED_EDGE('',*,*,#610,.T.);
#829=ORIENTED_EDGE('',*,*,#585,.F.);
#830=ORIENTED_EDGE('',*,*,#610,.F.);
#831=ORIENTED_EDGE('',*,*,#611,.F.);
#832=ORIENTED_EDGE('',*,*,#612,.T.);
#833=ORIENTED_EDGE('',*,*,#586,.F.);
#834=ORIENTED_EDGE('',*,*,#612,.F.);
#835=ORIENTED_EDGE('',*,*,#587,.F.);
#836=ORIENTED_EDGE('',*,*,#613,.T.);
#837=ORIENTED_EDGE('',*,*,#614,.F.);
#838=ORIENTED_EDGE('',*,*,#613,.F.);
#839=ORIENTED_EDGE('',*,*,#521,.F.);
#840=ORIENTED_EDGE('',*,*,#595,.F.);
#841=ORIENTED_EDGE('',*,*,#592,.F.);
#842=ORIENTED_EDGE('',*,*,#596,.F.);
#843=ORIENTED_EDGE('',*,*,#522,.F.);
#844=ORIENTED_EDGE('',*,*,#515,.F.);
#845=ORIENTED_EDGE('',*,*,#560,.F.);
#846=ORIENTED_EDGE('',*,*,#518,.T.);
#847=ORIENTED_EDGE('',*,*,#529,.T.);
#848=ORIENTED_EDGE('',*,*,#614,.T.);
#849=ORIENTED_EDGE('',*,*,#611,.T.);
#850=ORIENTED_EDGE('',*,*,#609,.T.);
#851=ORIENTED_EDGE('',*,*,#607,.T.);
#852=ORIENTED_EDGE('',*,*,#605,.T.);
#853=ORIENTED_EDGE('',*,*,#603,.T.);
#854=ORIENTED_EDGE('',*,*,#601,.T.);
#855=ORIENTED_EDGE('',*,*,#599,.T.);
#856=ORIENTED_EDGE('',*,*,#598,.T.);
#857=ORIENTED_EDGE('',*,*,#590,.T.);
#858=ORIENTED_EDGE('',*,*,#589,.T.);
#859=ORIENTED_EDGE('',*,*,#532,.T.);
#860=ORIENTED_EDGE('',*,*,#530,.T.);
#861=PLANE('',#978);
#862=PLANE('',#979);
#863=PLANE('',#980);
#864=PLANE('',#991);
#865=PLANE('',#992);
#866=PLANE('',#996);
#867=PLANE('',#1000);
#868=PLANE('',#1004);
#869=PLANE('',#1006);
#870=PLANE('',#1011);
#871=PLANE('',#1013);
#872=PLANE('',#1015);
#873=PLANE('',#1017);
#874=PLANE('',#1019);
#875=PLANE('',#1021);
#876=PLANE('',#1023);
#877=PLANE('',#1025);
#878=PLANE('',#1029);
#879=PLANE('',#1031);
#880=PLANE('',#1033);
#881=PLANE('',#1035);
#882=PLANE('',#1053);
#883=PLANE('',#1055);
#884=PLANE('',#1057);
#885=PLANE('',#1059);
#886=PLANE('',#1061);
#887=PLANE('',#1063);
#888=PLANE('',#1065);
#889=PLANE('',#1067);
#890=PLANE('',#1069);
#891=PLANE('',#1071);
#892=PLANE('',#1073);
#893=PLANE('',#1079);
#894=PLANE('',#1080);
#895=PLANE('',#1081);
#896=PLANE('',#1100);
#897=PLANE('',#1101);
#898=ADVANCED_FACE('',(#125),#861,.T.);
#899=ADVANCED_FACE('',(#126),#862,.T.);
#900=ADVANCED_FACE('',(#127),#863,.T.);
#901=ADVANCED_FACE('',(#128),#38,.F.);
#902=ADVANCED_FACE('',(#129),#39,.F.);
#903=ADVANCED_FACE('',(#130),#864,.F.);
#904=ADVANCED_FACE('',(#131),#865,.F.);
#905=ADVANCED_FACE('',(#132),#40,.F.);
#906=ADVANCED_FACE('',(#133),#866,.F.);
#907=ADVANCED_FACE('',(#134),#41,.T.);
#908=ADVANCED_FACE('',(#135,#15),#867,.T.);
#909=ADVANCED_FACE('',(#136),#42,.T.);
#910=ADVANCED_FACE('',(#137),#868,.F.);
#911=ADVANCED_FACE('',(#138),#869,.F.);
#912=ADVANCED_FACE('',(#139),#870,.F.);
#913=ADVANCED_FACE('',(#140),#871,.F.);
#914=ADVANCED_FACE('',(#141),#872,.F.);
#915=ADVANCED_FACE('',(#142),#873,.F.);
#916=ADVANCED_FACE('',(#143),#874,.F.);
#917=ADVANCED_FACE('',(#144),#875,.F.);
#918=ADVANCED_FACE('',(#145),#876,.F.);
#919=ADVANCED_FACE('',(#146),#877,.F.);
#920=ADVANCED_FACE('',(#147),#43,.F.);
#921=ADVANCED_FACE('',(#148),#878,.T.);
#922=ADVANCED_FACE('',(#149),#44,.T.);
#923=ADVANCED_FACE('',(#150),#879,.T.);
#924=ADVANCED_FACE('',(#151),#45,.T.);
#925=ADVANCED_FACE('',(#152),#880,.T.);
#926=ADVANCED_FACE('',(#153),#46,.T.);
#927=ADVANCED_FACE('',(#154),#881,.T.);
#928=ADVANCED_FACE('',(#155),#47,.T.);
#929=ADVANCED_FACE('',(#156),#48,.F.);
#930=ADVANCED_FACE('',(#157),#49,.F.);
#931=ADVANCED_FACE('',(#158),#50,.F.);
#932=ADVANCED_FACE('',(#159),#51,.F.);
#933=ADVANCED_FACE('',(#160),#52,.F.);
#934=ADVANCED_FACE('',(#161),#53,.F.);
#935=ADVANCED_FACE('',(#162),#54,.F.);
#936=ADVANCED_FACE('',(#163),#55,.F.);
#937=ADVANCED_FACE('',(#164),#882,.T.);
#938=ADVANCED_FACE('',(#165,#16),#883,.T.);
#939=ADVANCED_FACE('',(#166,#17),#884,.T.);
#940=ADVANCED_FACE('',(#167,#18),#885,.T.);
#941=ADVANCED_FACE('',(#168,#19),#886,.T.);
#942=ADVANCED_FACE('',(#169,#20),#887,.T.);
#943=ADVANCED_FACE('',(#170,#21),#888,.T.);
#944=ADVANCED_FACE('',(#171,#22),#889,.T.);
#945=ADVANCED_FACE('',(#172,#23),#890,.T.);
#946=ADVANCED_FACE('',(#173,#24),#891,.T.);
#947=ADVANCED_FACE('',(#174),#892,.T.);
#948=ADVANCED_FACE('',(#175),#56,.T.);
#949=ADVANCED_FACE('',(#176),#57,.T.);
#950=ADVANCED_FACE('',(#177),#893,.F.);
#951=ADVANCED_FACE('',(#178),#894,.F.);
#952=ADVANCED_FACE('',(#179),#895,.F.);
#953=ADVANCED_FACE('',(#180),#58,.T.);
#954=ADVANCED_FACE('',(#181),#59,.T.);
#955=ADVANCED_FACE('',(#182),#60,.T.);
#956=ADVANCED_FACE('',(#183),#61,.T.);
#957=ADVANCED_FACE('',(#184),#62,.T.);
#958=ADVANCED_FACE('',(#185),#63,.T.);
#959=ADVANCED_FACE('',(#186),#64,.T.);
#960=ADVANCED_FACE('',(#187),#65,.T.);
#961=ADVANCED_FACE('',(#188),#66,.T.);
#962=ADVANCED_FACE('',(#189,#25,#26,#27,#28,#29,#30,#31,#32,#33,#34,#35,
#36,#37),#896,.T.);
#963=ADVANCED_FACE('',(#190),#897,.T.);
#964=CLOSED_SHELL('',(#898,#899,#900,#901,#902,#903,#904,#905,#906,#907,
#908,#909,#910,#911,#912,#913,#914,#915,#916,#917,#918,#919,#920,#921,#922,
#923,#924,#925,#926,#927,#928,#929,#930,#931,#932,#933,#934,#935,#936,#937,
#938,#939,#940,#941,#942,#943,#944,#945,#946,#947,#948,#949,#950,#951,#952,
#953,#954,#955,#956,#957,#958,#959,#960,#961,#962,#963));
#965=DERIVED_UNIT_ELEMENT(#967,1.);
#966=DERIVED_UNIT_ELEMENT(#1694,-3.);
#967=(
MASS_UNIT()
NAMED_UNIT(*)
SI_UNIT(.KILO.,.GRAM.)
);
#968=DERIVED_UNIT((#965,#966));
#969=MEASURE_REPRESENTATION_ITEM('density measure',
POSITIVE_RATIO_MEASURE(7850.),#968);
#970=PROPERTY_DEFINITION_REPRESENTATION(#975,#972);
#971=PROPERTY_DEFINITION_REPRESENTATION(#976,#973);
#972=REPRESENTATION('material name',(#974),#1691);
#973=REPRESENTATION('density',(#969),#1691);
#974=DESCRIPTIVE_REPRESENTATION_ITEM('Steel','Steel');
#975=PROPERTY_DEFINITION('material property','material name',#1701);
#976=PROPERTY_DEFINITION('material property','density of part',#1701);
#977=AXIS2_PLACEMENT_3D('',#1417,#1102,#1103);
#978=AXIS2_PLACEMENT_3D('',#1418,#1104,#1105);
#979=AXIS2_PLACEMENT_3D('',#1427,#1110,#1111);
#980=AXIS2_PLACEMENT_3D('',#1436,#1116,#1117);
#981=AXIS2_PLACEMENT_3D('',#1449,#1124,#1125);
#982=AXIS2_PLACEMENT_3D('',#1453,#1127,#1128);
#983=AXIS2_PLACEMENT_3D('',#1457,#1130,#1131);
#984=AXIS2_PLACEMENT_3D('',#1461,#1133,#1134);
#985=AXIS2_PLACEMENT_3D('',#1463,#1136,#1137);
#986=AXIS2_PLACEMENT_3D('',#1465,#1138,#1139);
#987=AXIS2_PLACEMENT_3D('',#1468,#1141,#1142);
#988=AXIS2_PLACEMENT_3D('',#1469,#1143,#1144);
#989=AXIS2_PLACEMENT_3D('',#1471,#1145,#1146);
#990=AXIS2_PLACEMENT_3D('',#1474,#1148,#1149);
#991=AXIS2_PLACEMENT_3D('',#1475,#1150,#1151);
#992=AXIS2_PLACEMENT_3D('',#1479,#1154,#1155);
#993=AXIS2_PLACEMENT_3D('',#1483,#1158,#1159);
#994=AXIS2_PLACEMENT_3D('',#1485,#1160,#1161);
#995=AXIS2_PLACEMENT_3D('',#1488,#1163,#1164);
#996=AXIS2_PLACEMENT_3D('',#1489,#1165,#1166);
#997=AXIS2_PLACEMENT_3D('',#1490,#1167,#1168);
#998=AXIS2_PLACEMENT_3D('',#1492,#1169,#1170);
#999=AXIS2_PLACEMENT_3D('',#1495,#1172,#1173);
#1000=AXIS2_PLACEMENT_3D('',#1496,#1174,#1175);
#1001=AXIS2_PLACEMENT_3D('',#1497,#1176,#1177);
#1002=AXIS2_PLACEMENT_3D('',#1499,#1178,#1179);
#1003=AXIS2_PLACEMENT_3D('',#1502,#1181,#1182);
#1004=AXIS2_PLACEMENT_3D('',#1503,#1183,#1184);
#1005=AXIS2_PLACEMENT_3D('',#1505,#1185,#1186);
#1006=AXIS2_PLACEMENT_3D('',#1506,#1187,#1188);
#1007=AXIS2_PLACEMENT_3D('',#1509,#1189,#1190);
#1008=AXIS2_PLACEMENT_3D('',#1513,#1192,#1193);
#1009=AXIS2_PLACEMENT_3D('',#1517,#1195,#1196);
#1010=AXIS2_PLACEMENT_3D('',#1521,#1198,#1199);
#1011=AXIS2_PLACEMENT_3D('',#1523,#1201,#1202);
#1012=AXIS2_PLACEMENT_3D('',#1525,#1203,#1204);
#1013=AXIS2_PLACEMENT_3D('',#1526,#1205,#1206);
#1014=AXIS2_PLACEMENT_3D('',#1528,#1207,#1208);
#1015=AXIS2_PLACEMENT_3D('',#1529,#1209,#1210);
#1016=AXIS2_PLACEMENT_3D('',#1531,#1211,#1212);
#1017=AXIS2_PLACEMENT_3D('',#1532,#1213,#1214);
#1018=AXIS2_PLACEMENT_3D('',#1534,#1215,#1216);
#1019=AXIS2_PLACEMENT_3D('',#1535,#1217,#1218);
#1020=AXIS2_PLACEMENT_3D('',#1537,#1219,#1220);
#1021=AXIS2_PLACEMENT_3D('',#1538,#1221,#1222);
#1022=AXIS2_PLACEMENT_3D('',#1540,#1223,#1224);
#1023=AXIS2_PLACEMENT_3D('',#1541,#1225,#1226);
#1024=AXIS2_PLACEMENT_3D('',#1543,#1227,#1228);
#1025=AXIS2_PLACEMENT_3D('',#1544,#1229,#1230);
#1026=AXIS2_PLACEMENT_3D('',#1546,#1231,#1232);
#1027=AXIS2_PLACEMENT_3D('',#1547,#1233,#1234);
#1028=AXIS2_PLACEMENT_3D('',#1549,#1235,#1236);
#1029=AXIS2_PLACEMENT_3D('',#1551,#1238,#1239);
#1030=AXIS2_PLACEMENT_3D('',#1554,#1242,#1243);
#1031=AXIS2_PLACEMENT_3D('',#1556,#1245,#1246);
#1032=AXIS2_PLACEMENT_3D('',#1558,#1248,#1249);
#1033=AXIS2_PLACEMENT_3D('',#1560,#1251,#1252);
#1034=AXIS2_PLACEMENT_3D('',#1562,#1254,#1255);
#1035=AXIS2_PLACEMENT_3D('',#1564,#1257,#1258);
#1036=AXIS2_PLACEMENT_3D('',#1567,#1261,#1262);
#1037=AXIS2_PLACEMENT_3D('',#1568,#1263,#1264);
#1038=AXIS2_PLACEMENT_3D('',#1570,#1265,#1266);
#1039=AXIS2_PLACEMENT_3D('',#1572,#1268,#1269);
#1040=AXIS2_PLACEMENT_3D('',#1574,#1270,#1271);
#1041=AXIS2_PLACEMENT_3D('',#1576,#1273,#1274);
#1042=AXIS2_PLACEMENT_3D('',#1578,#1275,#1276);
#1043=AXIS2_PLACEMENT_3D('',#1580,#1278,#1279);
#1044=AXIS2_PLACEMENT_3D('',#1582,#1280,#1281);
#1045=AXIS2_PLACEMENT_3D('',#1584,#1283,#1284);
#1046=AXIS2_PLACEMENT_3D('',#1586,#1285,#1286);
#1047=AXIS2_PLACEMENT_3D('',#1588,#1288,#1289);
#1048=AXIS2_PLACEMENT_3D('',#1590,#1290,#1291);
#1049=AXIS2_PLACEMENT_3D('',#1592,#1293,#1294);
#1050=AXIS2_PLACEMENT_3D('',#1594,#1295,#1296);
#1051=AXIS2_PLACEMENT_3D('',#1596,#1298,#1299);
#1052=AXIS2_PLACEMENT_3D('',#1598,#1300,#1301);
#1053=AXIS2_PLACEMENT_3D('',#1600,#1303,#1304);
#1054=AXIS2_PLACEMENT_3D('',#1602,#1305,#1306);
#1055=AXIS2_PLACEMENT_3D('',#1603,#1307,#1308);
#1056=AXIS2_PLACEMENT_3D('',#1605,#1309,#1310);
#1057=AXIS2_PLACEMENT_3D('',#1606,#1311,#1312);
#1058=AXIS2_PLACEMENT_3D('',#1608,#1313,#1314);
#1059=AXIS2_PLACEMENT_3D('',#1609,#1315,#1316);
#1060=AXIS2_PLACEMENT_3D('',#1611,#1317,#1318);
#1061=AXIS2_PLACEMENT_3D('',#1612,#1319,#1320);
#1062=AXIS2_PLACEMENT_3D('',#1614,#1321,#1322);
#1063=AXIS2_PLACEMENT_3D('',#1615,#1323,#1324);
#1064=AXIS2_PLACEMENT_3D('',#1617,#1325,#1326);
#1065=AXIS2_PLACEMENT_3D('',#1618,#1327,#1328);
#1066=AXIS2_PLACEMENT_3D('',#1620,#1329,#1330);
#1067=AXIS2_PLACEMENT_3D('',#1621,#1331,#1332);
#1068=AXIS2_PLACEMENT_3D('',#1623,#1333,#1334);
#1069=AXIS2_PLACEMENT_3D('',#1624,#1335,#1336);
#1070=AXIS2_PLACEMENT_3D('',#1626,#1337,#1338);
#1071=AXIS2_PLACEMENT_3D('',#1627,#1339,#1340);
#1072=AXIS2_PLACEMENT_3D('',#1629,#1341,#1342);
#1073=AXIS2_PLACEMENT_3D('',#1630,#1343,#1344);
#1074=AXIS2_PLACEMENT_3D('',#1632,#1345,#1346);
#1075=AXIS2_PLACEMENT_3D('',#1633,#1347,#1348);
#1076=AXIS2_PLACEMENT_3D('',#1636,#1350,#1351);
#1077=AXIS2_PLACEMENT_3D('',#1637,#1352,#1353);
#1078=AXIS2_PLACEMENT_3D('',#1639,#1354,#1355);
#1079=AXIS2_PLACEMENT_3D('',#1641,#1357,#1358);
#1080=AXIS2_PLACEMENT_3D('',#1647,#1362,#1363);
#1081=AXIS2_PLACEMENT_3D('',#1649,#1365,#1366);
#1082=AXIS2_PLACEMENT_3D('',#1651,#1368,#1369);
#1083=AXIS2_PLACEMENT_3D('',#1654,#1371,#1372);
#1084=AXIS2_PLACEMENT_3D('',#1655,#1373,#1374);
#1085=AXIS2_PLACEMENT_3D('',#1657,#1375,#1376);
#1086=AXIS2_PLACEMENT_3D('',#1659,#1378,#1379);
#1087=AXIS2_PLACEMENT_3D('',#1661,#1380,#1381);
#1088=AXIS2_PLACEMENT_3D('',#1663,#1383,#1384);
#1089=AXIS2_PLACEMENT_3D('',#1665,#1385,#1386);
#1090=AXIS2_PLACEMENT_3D('',#1667,#1388,#1389);
#1091=AXIS2_PLACEMENT_3D('',#1669,#1390,#1391);
#1092=AXIS2_PLACEMENT_3D('',#1671,#1393,#1394);
#1093=AXIS2_PLACEMENT_3D('',#1673,#1395,#1396);
#1094=AXIS2_PLACEMENT_3D('',#1675,#1398,#1399);
#1095=AXIS2_PLACEMENT_3D('',#1677,#1400,#1401);
#1096=AXIS2_PLACEMENT_3D('',#1679,#1403,#1404);
#1097=AXIS2_PLACEMENT_3D('',#1681,#1405,#1406);
#1098=AXIS2_PLACEMENT_3D('',#1683,#1408,#1409);
#1099=AXIS2_PLACEMENT_3D('',#1686,#1411,#1412);
#1100=AXIS2_PLACEMENT_3D('',#1687,#1413,#1414);
#1101=AXIS2_PLACEMENT_3D('',#1688,#1415,#1416);
#1102=DIRECTION('axis',(0.,0.,1.));
#1103=DIRECTION('refdir',(1.,0.,0.));
#1104=DIRECTION('center_axis',(0.,0.,1.));
#1105=DIRECTION('ref_axis',(1.,0.,0.));
#1106=DIRECTION('',(1.,0.,0.));
#1107=DIRECTION('',(0.,1.,0.));
#1108=DIRECTION('',(1.,0.,0.));
#1109=DIRECTION('',(0.,1.,0.));
#1110=DIRECTION('center_axis',(0.,0.,-1.));
#1111=DIRECTION('ref_axis',(-1.,0.,0.));
#1112=DIRECTION('',(-1.,0.,0.));
#1113=DIRECTION('',(0.,1.,0.));
#1114=DIRECTION('',(-1.,0.,0.));
#1115=DIRECTION('',(0.,1.,0.));
#1116=DIRECTION('center_axis',(0.,1.,0.));
#1117=DIRECTION('ref_axis',(0.,0.,1.));
#1118=DIRECTION('',(0.,0.,1.));
#1119=DIRECTION('',(-1.,0.,0.));
#1120=DIRECTION('',(1.371704123089E-16,0.,-1.));
#1121=DIRECTION('',(1.,0.,0.));
#1122=DIRECTION('',(0.,0.,1.));
#1123=DIRECTION('',(0.,0.,-1.));
#1124=DIRECTION('center_axis',(0.,1.,0.));
#1125=DIRECTION('ref_axis',(0.707106781186547,0.,-0.707106781186547));
#1126=DIRECTION('',(-1.,0.,0.));
#1127=DIRECTION('center_axis',(0.,1.,0.));
#1128=DIRECTION('ref_axis',(-0.707106781186547,0.,-0.707106781186547));
#1129=DIRECTION('',(0.,0.,1.));
#1130=DIRECTION('center_axis',(0.,1.,0.));
#1131=DIRECTION('ref_axis',(-0.707106781186547,0.,0.707106781186547));
#1132=DIRECTION('',(1.,0.,0.));
#1133=DIRECTION('center_axis',(0.,1.,0.));
#1134=DIRECTION('ref_axis',(0.707106781186547,0.,0.707106781186547));
#1135=DIRECTION('',(0.,0.,-1.));
#1136=DIRECTION('center_axis',(-1.,0.,0.));
#1137=DIRECTION('ref_axis',(0.,1.,0.));
#1138=DIRECTION('center_axis',(-1.,0.,0.));
#1139=DIRECTION('ref_axis',(0.,1.,0.));
#1140=DIRECTION('',(-1.,0.,0.));
#1141=DIRECTION('center_axis',(1.,0.,0.));
#1142=DIRECTION('ref_axis',(0.,1.,0.));
#1143=DIRECTION('center_axis',(-1.,0.,0.));
#1144=DIRECTION('ref_axis',(0.,-1.,0.));
#1145=DIRECTION('center_axis',(1.,0.,0.));
#1146=DIRECTION('ref_axis',(0.,-1.,0.));
#1147=DIRECTION('',(-1.,0.,0.));
#1148=DIRECTION('center_axis',(-1.,0.,0.));
#1149=DIRECTION('ref_axis',(0.,-1.,0.));
#1150=DIRECTION('center_axis',(1.,0.,0.));
#1151=DIRECTION('ref_axis',(0.,0.,1.));
#1152=DIRECTION('',(0.,-1.,0.));
#1153=DIRECTION('',(0.,0.,1.));
#1154=DIRECTION('center_axis',(1.,0.,0.));
#1155=DIRECTION('ref_axis',(0.,0.,1.));
#1156=DIRECTION('',(0.,0.,1.));
#1157=DIRECTION('',(0.,1.,0.));
#1158=DIRECTION('center_axis',(0.,-1.,0.));
#1159=DIRECTION('ref_axis',(0.,0.,1.));
#1160=DIRECTION('center_axis',(0.,-1.,0.));
#1161=DIRECTION('ref_axis',(0.,0.,1.));
#1162=DIRECTION('',(0.,-1.,0.));
#1163=DIRECTION('center_axis',(0.,-1.,0.));
#1164=DIRECTION('ref_axis',(0.,0.,1.));
#1165=DIRECTION('center_axis',(0.,-1.,0.));
#1166=DIRECTION('ref_axis',(0.,0.,1.));
#1167=DIRECTION('center_axis',(0.,1.,0.));
#1168=DIRECTION('ref_axis',(-1.,0.,0.));
#1169=DIRECTION('center_axis',(0.,1.,0.));
#1170=DIRECTION('ref_axis',(-1.,0.,0.));
#1171=DIRECTION('',(0.,-1.,0.));
#1172=DIRECTION('center_axis',(0.,-1.,0.));
#1173=DIRECTION('ref_axis',(-1.,0.,0.));
#1174=DIRECTION('center_axis',(0.,1.,0.));
#1175=DIRECTION('ref_axis',(-1.,0.,0.));
#1176=DIRECTION('center_axis',(0.,1.,0.));
#1177=DIRECTION('ref_axis',(-1.,0.,0.));
#1178=DIRECTION('center_axis',(0.,1.,0.));
#1179=DIRECTION('ref_axis',(-1.,0.,0.));
#1180=DIRECTION('',(0.,-1.,0.));
#1181=DIRECTION('center_axis',(0.,-1.,0.));
#1182=DIRECTION('ref_axis',(-1.,0.,0.));
#1183=DIRECTION('center_axis',(0.,-1.,0.));
#1184=DIRECTION('ref_axis',(0.,0.,1.));
#1185=DIRECTION('center_axis',(0.,-1.,0.));
#1186=DIRECTION('ref_axis',(0.,0.,1.));
#1187=DIRECTION('center_axis',(0.,1.,0.));
#1188=DIRECTION('ref_axis',(1.,0.,0.));
#1189=DIRECTION('center_axis',(0.,1.,0.));
#1190=DIRECTION('ref_axis',(0.707106781186547,0.,-0.707106781186547));
#1191=DIRECTION('',(0.,0.,-1.));
#1192=DIRECTION('center_axis',(0.,1.,0.));
#1193=DIRECTION('ref_axis',(0.707106781186547,0.,0.707106781186547));
#1194=DIRECTION('',(-1.,0.,0.));
#1195=DIRECTION('center_axis',(0.,1.,0.));
#1196=DIRECTION('ref_axis',(-0.707106781186547,0.,0.707106781186547));
#1197=DIRECTION('',(0.,0.,-1.));
#1198=DIRECTION('center_axis',(0.,1.,0.));
#1199=DIRECTION('ref_axis',(-0.707106781186547,0.,-0.707106781186547));
#1200=DIRECTION('',(1.,0.,0.));
#1201=DIRECTION('center_axis',(0.,-1.,0.));
#1202=DIRECTION('ref_axis',(0.,0.,1.));
#1203=DIRECTION('center_axis',(0.,-1.,0.));
#1204=DIRECTION('ref_axis',(0.,0.,1.));
#1205=DIRECTION('center_axis',(0.,-1.,0.));
#1206=DIRECTION('ref_axis',(0.,0.,1.));
#1207=DIRECTION('center_axis',(0.,-1.,0.));
#1208=DIRECTION('ref_axis',(0.,0.,1.));
#1209=DIRECTION('center_axis',(0.,-1.,0.));
#1210=DIRECTION('ref_axis',(0.,0.,1.));
#1211=DIRECTION('center_axis',(0.,-1.,0.));
#1212=DIRECTION('ref_axis',(0.,0.,1.));
#1213=DIRECTION('center_axis',(0.,-1.,0.));
#1214=DIRECTION('ref_axis',(0.,0.,1.));
#1215=DIRECTION('center_axis',(0.,-1.,0.));
#1216=DIRECTION('ref_axis',(0.,0.,1.));
#1217=DIRECTION('center_axis',(0.,-1.,0.));
#1218=DIRECTION('ref_axis',(0.,0.,1.));
#1219=DIRECTION('center_axis',(0.,-1.,0.));
#1220=DIRECTION('ref_axis',(0.,0.,1.));
#1221=DIRECTION('center_axis',(0.,-1.,0.));
#1222=DIRECTION('ref_axis',(0.,0.,1.));
#1223=DIRECTION('center_axis',(0.,-1.,0.));
#1224=DIRECTION('ref_axis',(0.,0.,1.));
#1225=DIRECTION('center_axis',(0.,-1.,0.));
#1226=DIRECTION('ref_axis',(0.,0.,1.));
#1227=DIRECTION('center_axis',(0.,-1.,0.));
#1228=DIRECTION('ref_axis',(0.,0.,1.));
#1229=DIRECTION('center_axis',(0.,-1.,0.));
#1230=DIRECTION('ref_axis',(0.,0.,1.));
#1231=DIRECTION('center_axis',(0.,-1.,0.));
#1232=DIRECTION('ref_axis',(0.,0.,1.));
#1233=DIRECTION('center_axis',(0.,-1.,0.));
#1234=DIRECTION('ref_axis',(0.,0.,1.));
#1235=DIRECTION('center_axis',(0.,-1.,0.));
#1236=DIRECTION('ref_axis',(0.,0.,1.));
#1237=DIRECTION('',(0.,-1.,0.));
#1238=DIRECTION('center_axis',(0.,0.,1.));
#1239=DIRECTION('ref_axis',(1.,0.,0.));
#1240=DIRECTION('',(0.,-1.,0.));
#1241=DIRECTION('',(0.,1.,0.));
#1242=DIRECTION('center_axis',(0.,1.,0.));
#1243=DIRECTION('ref_axis',(-0.707106781186547,0.,0.707106781186547));
#1244=DIRECTION('',(0.,-1.,0.));
#1245=DIRECTION('center_axis',(-1.,0.,0.));
#1246=DIRECTION('ref_axis',(0.,0.,1.));
#1247=DIRECTION('',(0.,1.,0.));
#1248=DIRECTION('center_axis',(0.,1.,0.));
#1249=DIRECTION('ref_axis',(-0.707106781186547,0.,-0.707106781186547));
#1250=DIRECTION('',(0.,-1.,0.));
#1251=DIRECTION('center_axis',(0.,0.,-1.));
#1252=DIRECTION('ref_axis',(-1.,0.,0.));
#1253=DIRECTION('',(0.,1.,0.));
#1254=DIRECTION('center_axis',(0.,1.,0.));
#1255=DIRECTION('ref_axis',(0.707106781186547,0.,-0.707106781186547));
#1256=DIRECTION('',(0.,-1.,0.));
#1257=DIRECTION('center_axis',(1.,0.,0.));
#1258=DIRECTION('ref_axis',(0.,0.,-1.));
#1259=DIRECTION('',(0.,1.,0.));
#1260=DIRECTION('',(0.,0.,1.));
#1261=DIRECTION('center_axis',(0.,-1.,0.));
#1262=DIRECTION('ref_axis',(0.707106781186547,0.,0.707106781186547));
#1263=DIRECTION('center_axis',(0.,-1.,0.));
#1264=DIRECTION('ref_axis',(0.,0.,1.));
#1265=DIRECTION('center_axis',(0.,-1.,0.));
#1266=DIRECTION('ref_axis',(0.,0.,1.));
#1267=DIRECTION('',(0.,-1.,0.));
#1268=DIRECTION('center_axis',(0.,-1.,0.));
#1269=DIRECTION('ref_axis',(0.,0.,1.));
#1270=DIRECTION('center_axis',(0.,-1.,0.));
#1271=DIRECTION('ref_axis',(0.,0.,1.));
#1272=DIRECTION('',(0.,-1.,0.));
#1273=DIRECTION('center_axis',(0.,-1.,0.));
#1274=DIRECTION('ref_axis',(0.,0.,1.));
#1275=DIRECTION('center_axis',(0.,-1.,0.));
#1276=DIRECTION('ref_axis',(0.,0.,1.));
#1277=DIRECTION('',(0.,-1.,0.));
#1278=DIRECTION('center_axis',(0.,-1.,0.));
#1279=DIRECTION('ref_axis',(0.,0.,1.));
#1280=DIRECTION('center_axis',(0.,-1.,0.));
#1281=DIRECTION('ref_axis',(0.,0.,1.));
#1282=DIRECTION('',(0.,-1.,0.));
#1283=DIRECTION('center_axis',(0.,-1.,0.));
#1284=DIRECTION('ref_axis',(0.,0.,1.));
#1285=DIRECTION('center_axis',(0.,-1.,0.));
#1286=DIRECTION('ref_axis',(0.,0.,1.));
#1287=DIRECTION('',(0.,-1.,0.));
#1288=DIRECTION('center_axis',(0.,-1.,0.));
#1289=DIRECTION('ref_axis',(0.,0.,1.));
#1290=DIRECTION('center_axis',(0.,-1.,0.));
#1291=DIRECTION('ref_axis',(0.,0.,1.));
#1292=DIRECTION('',(0.,-1.,0.));
#1293=DIRECTION('center_axis',(0.,-1.,0.));
#1294=DIRECTION('ref_axis',(0.,0.,1.));
#1295=DIRECTION('center_axis',(0.,-1.,0.));
#1296=DIRECTION('ref_axis',(0.,0.,1.));
#1297=DIRECTION('',(0.,-1.,0.));
#1298=DIRECTION('center_axis',(0.,-1.,0.));
#1299=DIRECTION('ref_axis',(0.,0.,1.));
#1300=DIRECTION('center_axis',(0.,-1.,0.));
#1301=DIRECTION('ref_axis',(0.,0.,1.));
#1302=DIRECTION('',(0.,-1.,0.));
#1303=DIRECTION('center_axis',(0.,1.,0.));
#1304=DIRECTION('ref_axis',(-1.,0.,0.));
#1305=DIRECTION('center_axis',(0.,1.,0.));
#1306=DIRECTION('ref_axis',(-1.,0.,0.));
#1307=DIRECTION('center_axis',(0.,1.,0.));
#1308=DIRECTION('ref_axis',(-1.,0.,0.));
#1309=DIRECTION('center_axis',(0.,1.,0.));
#1310=DIRECTION('ref_axis',(-1.,0.,0.));
#1311=DIRECTION('center_axis',(0.,1.,0.));
#1312=DIRECTION('ref_axis',(1.,0.,0.));
#1313=DIRECTION('center_axis',(0.,1.,0.));
#1314=DIRECTION('ref_axis',(1.,0.,0.));
#1315=DIRECTION('center_axis',(0.,1.,0.));
#1316=DIRECTION('ref_axis',(-1.,0.,0.));
#1317=DIRECTION('center_axis',(0.,1.,0.));
#1318=DIRECTION('ref_axis',(-1.,0.,0.));
#1319=DIRECTION('center_axis',(0.,1.,0.));
#1320=DIRECTION('ref_axis',(-1.,0.,0.));
#1321=DIRECTION('center_axis',(0.,1.,0.));
#1322=DIRECTION('ref_axis',(-1.,0.,0.));
#1323=DIRECTION('center_axis',(0.,1.,0.));
#1324=DIRECTION('ref_axis',(-1.,0.,0.));
#1325=DIRECTION('center_axis',(0.,1.,0.));
#1326=DIRECTION('ref_axis',(-1.,0.,0.));
#1327=DIRECTION('center_axis',(0.,1.,0.));
#1328=DIRECTION('ref_axis',(-1.,0.,0.));
#1329=DIRECTION('center_axis',(0.,1.,0.));
#1330=DIRECTION('ref_axis',(-1.,0.,0.));
#1331=DIRECTION('center_axis',(0.,1.,0.));
#1332=DIRECTION('ref_axis',(-1.,0.,0.));
#1333=DIRECTION('center_axis',(0.,1.,0.));
#1334=DIRECTION('ref_axis',(-1.,0.,0.));
#1335=DIRECTION('center_axis',(0.,1.,0.));
#1336=DIRECTION('ref_axis',(-1.,0.,0.));
#1337=DIRECTION('center_axis',(0.,1.,0.));
#1338=DIRECTION('ref_axis',(-1.,0.,0.));
#1339=DIRECTION('center_axis',(0.,1.,0.));
#1340=DIRECTION('ref_axis',(-1.,0.,0.));
#1341=DIRECTION('center_axis',(0.,1.,0.));
#1342=DIRECTION('ref_axis',(-1.,0.,0.));
#1343=DIRECTION('center_axis',(0.,1.,0.));
#1344=DIRECTION('ref_axis',(-1.,0.,0.));
#1345=DIRECTION('center_axis',(0.,1.,0.));
#1346=DIRECTION('ref_axis',(-1.,0.,0.));
#1347=DIRECTION('center_axis',(0.,1.,0.));
#1348=DIRECTION('ref_axis',(-1.,0.,0.));
#1349=DIRECTION('',(0.,-1.,0.));
#1350=DIRECTION('center_axis',(0.,-1.,0.));
#1351=DIRECTION('ref_axis',(-1.,0.,0.));
#1352=DIRECTION('center_axis',(0.,-1.,0.));
#1353=DIRECTION('ref_axis',(-1.,0.,0.));
#1354=DIRECTION('center_axis',(0.,-1.,0.));
#1355=DIRECTION('ref_axis',(-1.,0.,0.));
#1356=DIRECTION('',(0.,1.,0.));
#1357=DIRECTION('center_axis',(-1.,0.,0.));
#1358=DIRECTION('ref_axis',(0.,0.,-1.));
#1359=DIRECTION('',(0.,0.,-1.));
#1360=DIRECTION('',(0.,-1.,0.));
#1361=DIRECTION('',(0.,-1.,0.));
#1362=DIRECTION('center_axis',(0.,0.,-1.));
#1363=DIRECTION('ref_axis',(1.,0.,0.));
#1364=DIRECTION('',(1.,0.,0.));
#1365=DIRECTION('center_axis',(0.,0.,1.));
#1366=DIRECTION('ref_axis',(-1.,0.,0.));
#1367=DIRECTION('',(-1.,0.,0.));
#1368=DIRECTION('center_axis',(0.,1.,0.));
#1369=DIRECTION('ref_axis',(1.,0.,0.));
#1370=DIRECTION('',(0.,-1.,0.));
#1371=DIRECTION('center_axis',(0.,-1.,0.));
#1372=DIRECTION('ref_axis',(1.,0.,0.));
#1373=DIRECTION('center_axis',(0.,-1.,0.));
#1374=DIRECTION('ref_axis',(-1.,0.,0.));
#1375=DIRECTION('center_axis',(0.,-1.,0.));
#1376=DIRECTION('ref_axis',(-1.,0.,0.));
#1377=DIRECTION('',(0.,1.,0.));
#1378=DIRECTION('center_axis',(0.,-1.,0.));
#1379=DIRECTION('ref_axis',(-1.,0.,0.));
#1380=DIRECTION('center_axis',(0.,-1.,0.));
#1381=DIRECTION('ref_axis',(-1.,0.,0.));
#1382=DIRECTION('',(0.,1.,0.));
#1383=DIRECTION('center_axis',(0.,-1.,0.));
#1384=DIRECTION('ref_axis',(-1.,0.,0.));
#1385=DIRECTION('center_axis',(0.,-1.,0.));
#1386=DIRECTION('ref_axis',(-1.,0.,0.));
#1387=DIRECTION('',(0.,1.,0.));
#1388=DIRECTION('center_axis',(0.,-1.,0.));
#1389=DIRECTION('ref_axis',(-1.,0.,0.));
#1390=DIRECTION('center_axis',(0.,-1.,0.));
#1391=DIRECTION('ref_axis',(-1.,0.,0.));
#1392=DIRECTION('',(0.,1.,0.));
#1393=DIRECTION('center_axis',(0.,-1.,0.));
#1394=DIRECTION('ref_axis',(-1.,0.,0.));
#1395=DIRECTION('center_axis',(0.,-1.,0.));
#1396=DIRECTION('ref_axis',(-1.,0.,0.));
#1397=DIRECTION('',(0.,1.,0.));
#1398=DIRECTION('center_axis',(0.,-1.,0.));
#1399=DIRECTION('ref_axis',(-1.,0.,0.));
#1400=DIRECTION('center_axis',(0.,-1.,0.));
#1401=DIRECTION('ref_axis',(-1.,0.,0.));
#1402=DIRECTION('',(0.,1.,0.));
#1403=DIRECTION('center_axis',(0.,-1.,0.));
#1404=DIRECTION('ref_axis',(-1.,0.,0.));
#1405=DIRECTION('center_axis',(0.,-1.,0.));
#1406=DIRECTION('ref_axis',(-1.,0.,0.));
#1407=DIRECTION('',(0.,1.,0.));
#1408=DIRECTION('center_axis',(0.,1.,0.));
#1409=DIRECTION('ref_axis',(-1.,0.,0.));
#1410=DIRECTION('',(0.,-1.,0.));
#1411=DIRECTION('center_axis',(0.,-1.,0.));
#1412=DIRECTION('ref_axis',(-1.,0.,0.));
#1413=DIRECTION('center_axis',(0.,1.,0.));
#1414=DIRECTION('ref_axis',(0.,0.,1.));
#1415=DIRECTION('center_axis',(0.,1.,0.));
#1416=DIRECTION('ref_axis',(-1.,0.,0.));
#1417=CARTESIAN_POINT('',(0.,0.,0.));
#1418=CARTESIAN_POINT('Origin',(298.521006962791,10.,105.127018455856));
#1419=CARTESIAN_POINT('',(298.521006962791,10.,105.127018455856));
#1420=CARTESIAN_POINT('',(303.000000119209,10.,105.127018455856));
#1421=CARTESIAN_POINT('',(303.000000119209,10.,105.127018455856));
#1422=CARTESIAN_POINT('',(303.000000119209,11.,105.127018455856));
#1423=CARTESIAN_POINT('',(303.000000119209,10.,105.127018455856));
#1424=CARTESIAN_POINT('',(298.521006962791,11.,105.127018455856));
#1425=CARTESIAN_POINT('',(303.000000119209,11.,105.127018455856));
#1426=CARTESIAN_POINT('',(298.521006962791,10.,105.127018455856));
#1427=CARTESIAN_POINT('Origin',(303.000000119209,10.,127.87298520983));
#1428=CARTESIAN_POINT('',(303.000000119209,10.,127.87298520983));
#1429=CARTESIAN_POINT('',(298.521006962791,10.,127.87298520983));
#1430=CARTESIAN_POINT('',(303.000000119209,10.,127.87298520983));
#1431=CARTESIAN_POINT('',(298.521006962791,11.,127.87298520983));
#1432=CARTESIAN_POINT('',(298.521006962791,10.,127.87298520983));
#1433=CARTESIAN_POINT('',(303.000000119209,11.,127.87298520983));
#1434=CARTESIAN_POINT('',(303.000000119209,11.,127.87298520983));
#1435=CARTESIAN_POINT('',(303.000000119209,10.,127.87298520983));
#1436=CARTESIAN_POINT('Origin',(153.000000119209,11.,68.7500000596046));
#1437=CARTESIAN_POINT('',(298.521006962791,11.,133.643275526619));
#1438=CARTESIAN_POINT('',(298.521006962791,11.,4.14327552661938));
#1439=CARTESIAN_POINT('',(8.52100696279081,11.,133.643275526619));
#1440=CARTESIAN_POINT('',(298.521006962791,11.,133.643275526619));
#1441=CARTESIAN_POINT('',(8.52100696279081,11.,4.14327552661938));
#1442=CARTESIAN_POINT('',(8.52100696279081,11.,133.643275526619));
#1443=CARTESIAN_POINT('',(298.521006962791,11.,4.14327552661938));
#1444=CARTESIAN_POINT('',(8.52100696279082,11.,4.14327552661938));
#1445=CARTESIAN_POINT('',(298.521006962791,11.,4.14327552661938));
#1446=CARTESIAN_POINT('',(303.000000119209,11.,4.00000005960464));
#1447=CARTESIAN_POINT('',(303.000000119209,11.,138.500000059605));
#1448=CARTESIAN_POINT('',(298.000000119209,11.,-0.999999940395355));
#1449=CARTESIAN_POINT('Origin',(298.000000119209,11.,4.00000005960464));
#1450=CARTESIAN_POINT('',(8.00000011920929,11.,-0.999999940395355));
#1451=CARTESIAN_POINT('',(303.000000119209,11.,-0.999999940395355));
#1452=CARTESIAN_POINT('',(3.00000011920929,11.,4.00000005960464));
#1453=CARTESIAN_POINT('Origin',(8.00000011920929,11.,4.00000005960464));
#1454=CARTESIAN_POINT('',(3.00000011920929,11.,133.500000059605));
#1455=CARTESIAN_POINT('',(3.00000011920929,11.,-0.999999940395355));
#1456=CARTESIAN_POINT('',(8.00000011920929,11.,138.500000059605));
#1457=CARTESIAN_POINT('Origin',(8.00000011920929,11.,133.500000059605));
#1458=CARTESIAN_POINT('',(298.000000119209,11.,138.500000059605));
#1459=CARTESIAN_POINT('',(3.00000011920929,11.,138.500000059605));
#1460=CARTESIAN_POINT('',(303.000000119209,11.,133.500000059605));
#1461=CARTESIAN_POINT('Origin',(298.000000119209,11.,133.500000059605));
#1462=CARTESIAN_POINT('',(303.000000119209,11.,138.500000059605));
#1463=CARTESIAN_POINT('Origin',(303.000000119209,9.00000011920929,124.000001832843));
#1464=CARTESIAN_POINT('',(303.000000119209,5.00000011920929,124.000001832843));
#1465=CARTESIAN_POINT('Origin',(303.000000119209,9.00000011920929,124.000001832843));
#1466=CARTESIAN_POINT('',(298.521006962791,5.00000011920929,124.000001832843));
#1467=CARTESIAN_POINT('',(303.000000119209,5.00000011920929,124.000001832843));
#1468=CARTESIAN_POINT('Origin',(298.521006962791,9.00000011920929,124.000001832843));
#1469=CARTESIAN_POINT('Origin',(303.000000119209,9.00000011920929,109.000001832843));
#1470=CARTESIAN_POINT('',(298.521006962791,5.00000011920929,109.000001832843));
#1471=CARTESIAN_POINT('Origin',(298.521006962791,9.00000011920929,109.000001832843));
#1472=CARTESIAN_POINT('',(303.000000119209,5.00000011920929,109.000001832843));
#1473=CARTESIAN_POINT('',(303.000000119209,5.00000011920929,109.000001832843));
#1474=CARTESIAN_POINT('Origin',(303.000000119209,9.00000011920929,109.000001832843));
#1475=CARTESIAN_POINT('Origin',(298.521006962791,5.,4.14327552661938));
#1476=CARTESIAN_POINT('',(298.521006962791,5.,4.14327552661938));
#1477=CARTESIAN_POINT('',(298.521006962791,5.,4.14327552661938));
#1478=CARTESIAN_POINT('',(298.521006962791,5.,36.5182755266194));
#1479=CARTESIAN_POINT('Origin',(298.521006962791,5.,4.14327552661938));
#1480=CARTESIAN_POINT('',(298.521006962791,5.,133.643275526619));
#1481=CARTESIAN_POINT('',(298.521006962791,5.,36.5182755266194));
#1482=CARTESIAN_POINT('',(298.521006962791,5.,133.643275526619));
#1483=CARTESIAN_POINT('Origin',(12.0210069627908,8.,130.143275526619));
#1484=CARTESIAN_POINT('',(12.0210069627908,10.,128.393275526619));
#1485=CARTESIAN_POINT('Origin',(12.0210069627908,10.,130.143275526619));
#1486=CARTESIAN_POINT('',(12.0210069627908,6.,128.393275526619));
#1487=CARTESIAN_POINT('',(12.0210069627908,8.,128.393275526619));
#1488=CARTESIAN_POINT('Origin',(12.0210069627908,6.,130.143275526619));
#1489=CARTESIAN_POINT('Origin',(12.0210069627908,6.,130.143275526619));
#1490=CARTESIAN_POINT('Origin',(12.0210069627908,5.,130.143275526619));
#1491=CARTESIAN_POINT('',(15.0210069627908,10.,130.143275526619));
#1492=CARTESIAN_POINT('Origin',(12.0210069627908,10.,130.143275526619));
#1493=CARTESIAN_POINT('',(15.0210069627908,5.,130.143275526619));
#1494=CARTESIAN_POINT('',(15.0210069627908,5.,130.143275526619));
#1495=CARTESIAN_POINT('Origin',(12.0210069627908,5.,130.143275526619));
#1496=CARTESIAN_POINT('Origin',(12.0210069627908,10.,130.143275526619));
#1497=CARTESIAN_POINT('Origin',(81.0210069627908,5.,68.8932755266194));
#1498=CARTESIAN_POINT('',(84.0210069627908,10.,68.8932755266194));
#1499=CARTESIAN_POINT('Origin',(81.0210069627908,10.,68.8932755266194));
#1500=CARTESIAN_POINT('',(84.0210069627908,5.,68.8932755266194));
#1501=CARTESIAN_POINT('',(84.0210069627908,5.,68.8932755266194));
#1502=CARTESIAN_POINT('Origin',(81.0210069627908,5.,68.8932755266194));
#1503=CARTESIAN_POINT('Origin',(178.521006962791,6.,130.143275526619));
#1504=CARTESIAN_POINT('',(178.521006962791,6.,128.393275526619));
#1505=CARTESIAN_POINT('Origin',(178.521006962791,6.,130.143275526619));
#1506=CARTESIAN_POINT('Origin',(153.000000119209,0.,68.7500000596046));
#1507=CARTESIAN_POINT('',(303.000000119209,0.,4.00000005960464));
#1508=CARTESIAN_POINT('',(298.000000119209,0.,-0.999999940395355));
#1509=CARTESIAN_POINT('Origin',(298.000000119209,0.,4.00000005960464));
#1510=CARTESIAN_POINT('',(303.000000119209,0.,133.500000059605));
#1511=CARTESIAN_POINT('',(303.000000119209,0.,133.500000059605));
#1512=CARTESIAN_POINT('',(298.000000119209,0.,138.500000059605));
#1513=CARTESIAN_POINT('Origin',(298.000000119209,0.,133.500000059605));
#1514=CARTESIAN_POINT('',(8.00000011920929,0.,138.500000059605));
#1515=CARTESIAN_POINT('',(8.00000011920929,0.,138.500000059605));
#1516=CARTESIAN_POINT('',(3.00000011920929,0.,133.500000059605));
#1517=CARTESIAN_POINT('Origin',(8.00000011920929,0.,133.500000059605));
#1518=CARTESIAN_POINT('',(3.00000011920929,0.,4.00000005960464));
#1519=CARTESIAN_POINT('',(3.00000011920929,0.,4.00000005960464));
#1520=CARTESIAN_POINT('',(8.00000011920929,0.,-0.999999940395355));
#1521=CARTESIAN_POINT('Origin',(8.00000011920929,0.,4.00000005960464));
#1522=CARTESIAN_POINT('',(298.000000119209,0.,-0.999999940395355));
#1523=CARTESIAN_POINT('Origin',(12.0210069627908,6.,7.64327552661938));
#1524=CARTESIAN_POINT('',(12.0210069627908,6.,5.89327552661938));
#1525=CARTESIAN_POINT('Origin',(12.0210069627908,6.,7.64327552661938));
#1526=CARTESIAN_POINT('Origin',(12.0210069627908,6.,57.6432755266194));
#1527=CARTESIAN_POINT('',(12.0210069627908,6.,55.8932755266194));
#1528=CARTESIAN_POINT('Origin',(12.0210069627908,6.,57.6432755266194));
#1529=CARTESIAN_POINT('Origin',(12.0210069627908,6.,97.6432755266194));
#1530=CARTESIAN_POINT('',(12.0210069627908,6.,95.8932755266194));
#1531=CARTESIAN_POINT('Origin',(12.0210069627908,6.,97.6432755266194));
#1532=CARTESIAN_POINT('Origin',(295.021006962791,6.,97.6432755266194));
#1533=CARTESIAN_POINT('',(295.021006962791,6.,95.8932755266194));
#1534=CARTESIAN_POINT('Origin',(295.021006962791,6.,97.6432755266194));
#1535=CARTESIAN_POINT('Origin',(153.521006962791,6.,7.64327552661938));
#1536=CARTESIAN_POINT('',(153.521006962791,6.,5.89327552661938));
#1537=CARTESIAN_POINT('Origin',(153.521006962791,6.,7.64327552661938));
#1538=CARTESIAN_POINT('Origin',(295.021006962791,6.,57.6432755266194));
#1539=CARTESIAN_POINT('',(295.021006962791,6.,55.8932755266194));
#1540=CARTESIAN_POINT('Origin',(295.021006962791,6.,57.6432755266194));
#1541=CARTESIAN_POINT('Origin',(128.521006962791,6.,130.143275526619));
#1542=CARTESIAN_POINT('',(128.521006962791,6.,128.393275526619));
#1543=CARTESIAN_POINT('Origin',(128.521006962791,6.,130.143275526619));
#1544=CARTESIAN_POINT('Origin',(295.021006962791,6.,7.64327552661938));
#1545=CARTESIAN_POINT('',(295.021006962791,6.,5.89327552661938));
#1546=CARTESIAN_POINT('Origin',(295.021006962791,6.,7.64327552661938));
#1547=CARTESIAN_POINT('Origin',(178.521006962791,8.,130.143275526619));
#1548=CARTESIAN_POINT('',(178.521006962791,10.,128.393275526619));
#1549=CARTESIAN_POINT('Origin',(178.521006962791,10.,130.143275526619));
#1550=CARTESIAN_POINT('',(178.521006962791,8.,128.393275526619));
#1551=CARTESIAN_POINT('Origin',(8.00000011920929,0.,138.500000059605));
#1552=CARTESIAN_POINT('',(298.000000119209,0.,138.500000059605));
#1553=CARTESIAN_POINT('',(8.00000011920929,0.,138.500000059605));
#1554=CARTESIAN_POINT('Origin',(8.00000011920929,0.,133.500000059605));
#1555=CARTESIAN_POINT('',(3.00000011920929,0.,133.500000059605));
#1556=CARTESIAN_POINT('Origin',(3.00000011920929,0.,4.00000005960464));
#1557=CARTESIAN_POINT('',(3.00000011920929,0.,4.00000005960464));
#1558=CARTESIAN_POINT('Origin',(8.00000011920929,0.,4.00000005960464));
#1559=CARTESIAN_POINT('',(8.00000011920929,0.,-0.999999940395355));
#1560=CARTESIAN_POINT('Origin',(298.000000119209,0.,-0.999999940395355));
#1561=CARTESIAN_POINT('',(298.000000119209,0.,-0.999999940395355));
#1562=CARTESIAN_POINT('Origin',(298.000000119209,0.,4.00000005960464));
#1563=CARTESIAN_POINT('',(303.000000119209,0.,4.00000005960464));
#1564=CARTESIAN_POINT('Origin',(303.000000119209,0.,133.500000059605));
#1565=CARTESIAN_POINT('',(303.000000119209,0.,133.500000059605));
#1566=CARTESIAN_POINT('',(303.000000119209,5.00000011920929,121.250000946224));
#1567=CARTESIAN_POINT('Origin',(298.000000119209,0.,133.500000059605));
#1568=CARTESIAN_POINT('Origin',(12.0210069627908,8.,7.64327552661938));
#1569=CARTESIAN_POINT('',(12.0210069627908,10.,5.89327552661938));
#1570=CARTESIAN_POINT('Origin',(12.0210069627908,10.,7.64327552661938));
#1571=CARTESIAN_POINT('',(12.0210069627908,8.,5.89327552661938));
#1572=CARTESIAN_POINT('Origin',(12.0210069627908,8.,57.6432755266194));
#1573=CARTESIAN_POINT('',(12.0210069627908,10.,55.8932755266194));
#1574=CARTESIAN_POINT('Origin',(12.0210069627908,10.,57.6432755266194));
#1575=CARTESIAN_POINT('',(12.0210069627908,8.,55.8932755266194));
#1576=CARTESIAN_POINT('Origin',(12.0210069627908,8.,97.6432755266194));
#1577=CARTESIAN_POINT('',(12.0210069627908,10.,95.8932755266194));
#1578=CARTESIAN_POINT('Origin',(12.0210069627908,10.,97.6432755266194));
#1579=CARTESIAN_POINT('',(12.0210069627908,8.,95.8932755266194));
#1580=CARTESIAN_POINT('Origin',(295.021006962791,8.,97.6432755266194));
#1581=CARTESIAN_POINT('',(295.021006962791,10.,95.8932755266194));
#1582=CARTESIAN_POINT('Origin',(295.021006962791,10.,97.6432755266194));
#1583=CARTESIAN_POINT('',(295.021006962791,8.,95.8932755266194));
#1584=CARTESIAN_POINT('Origin',(153.521006962791,8.,7.64327552661938));
#1585=CARTESIAN_POINT('',(153.521006962791,10.,5.89327552661938));
#1586=CARTESIAN_POINT('Origin',(153.521006962791,10.,7.64327552661938));
#1587=CARTESIAN_POINT('',(153.521006962791,8.,5.89327552661938));
#1588=CARTESIAN_POINT('Origin',(295.021006962791,8.,57.6432755266194));
#1589=CARTESIAN_POINT('',(295.021006962791,10.,55.8932755266194));
#1590=CARTESIAN_POINT('Origin',(295.021006962791,10.,57.6432755266194));
#1591=CARTESIAN_POINT('',(295.021006962791,8.,55.8932755266194));
#1592=CARTESIAN_POINT('Origin',(128.521006962791,8.,130.143275526619));
#1593=CARTESIAN_POINT('',(128.521006962791,10.,128.393275526619));
#1594=CARTESIAN_POINT('Origin',(128.521006962791,10.,130.143275526619));
#1595=CARTESIAN_POINT('',(128.521006962791,8.,128.393275526619));
#1596=CARTESIAN_POINT('Origin',(295.021006962791,8.,7.64327552661938));
#1597=CARTESIAN_POINT('',(295.021006962791,10.,5.89327552661938));
#1598=CARTESIAN_POINT('Origin',(295.021006962791,10.,7.64327552661938));
#1599=CARTESIAN_POINT('',(295.021006962791,8.,5.89327552661938));
#1600=CARTESIAN_POINT('Origin',(153.521006962791,10.,68.8932755266194));
#1601=CARTESIAN_POINT('',(156.521006962791,10.,68.8932755266194));
#1602=CARTESIAN_POINT('Origin',(153.521006962791,10.,68.8932755266194));
#1603=CARTESIAN_POINT('Origin',(178.521006962791,10.,130.143275526619));
#1604=CARTESIAN_POINT('',(181.521006962791,10.,130.143275526619));
#1605=CARTESIAN_POINT('Origin',(178.521006962791,10.,130.143275526619));
#1606=CARTESIAN_POINT('Origin',(12.0210069627908,10.,7.64327552661938));
#1607=CARTESIAN_POINT('',(9.02100696279081,10.,7.64327552661938));
#1608=CARTESIAN_POINT('Origin',(12.0210069627908,10.,7.64327552661938));
#1609=CARTESIAN_POINT('Origin',(12.0210069627908,10.,57.6432755266194));
#1610=CARTESIAN_POINT('',(15.0210069627908,10.,57.6432755266194));
#1611=CARTESIAN_POINT('Origin',(12.0210069627908,10.,57.6432755266194));
#1612=CARTESIAN_POINT('Origin',(12.0210069627908,10.,97.6432755266194));
#1613=CARTESIAN_POINT('',(15.0210069627908,10.,97.6432755266194));
#1614=CARTESIAN_POINT('Origin',(12.0210069627908,10.,97.6432755266194));
#1615=CARTESIAN_POINT('Origin',(295.021006962791,10.,97.6432755266194));
#1616=CARTESIAN_POINT('',(298.021006962791,10.,97.6432755266194));
#1617=CARTESIAN_POINT('Origin',(295.021006962791,10.,97.6432755266194));
#1618=CARTESIAN_POINT('Origin',(153.521006962791,10.,7.64327552661938));
#1619=CARTESIAN_POINT('',(156.521006962791,10.,7.64327552661938));
#1620=CARTESIAN_POINT('Origin',(153.521006962791,10.,7.64327552661938));
#1621=CARTESIAN_POINT('Origin',(295.021006962791,10.,57.6432755266194));
#1622=CARTESIAN_POINT('',(298.021006962791,10.,57.6432755266194));
#1623=CARTESIAN_POINT('Origin',(295.021006962791,10.,57.6432755266194));
#1624=CARTESIAN_POINT('Origin',(128.521006962791,10.,130.143275526619));
#1625=CARTESIAN_POINT('',(131.521006962791,10.,130.143275526619));
#1626=CARTESIAN_POINT('Origin',(128.521006962791,10.,130.143275526619));
#1627=CARTESIAN_POINT('Origin',(295.021006962791,10.,7.64327552661938));
#1628=CARTESIAN_POINT('',(298.021006962791,10.,7.64327552661938));
#1629=CARTESIAN_POINT('Origin',(295.021006962791,10.,7.64327552661938));
#1630=CARTESIAN_POINT('Origin',(226.021006962791,10.,68.8932755266194));
#1631=CARTESIAN_POINT('',(229.021006962791,10.,68.8932755266194));
#1632=CARTESIAN_POINT('Origin',(226.021006962791,10.,68.8932755266194));
#1633=CARTESIAN_POINT('Origin',(153.521006962791,5.,68.8932755266194));
#1634=CARTESIAN_POINT('',(156.521006962791,5.,68.8932755266194));
#1635=CARTESIAN_POINT('',(156.521006962791,5.,68.8932755266194));
#1636=CARTESIAN_POINT('Origin',(153.521006962791,5.,68.8932755266194));
#1637=CARTESIAN_POINT('Origin',(178.521006962791,10.,130.143275526619));
#1638=CARTESIAN_POINT('',(181.521006962791,5.,130.143275526619));
#1639=CARTESIAN_POINT('Origin',(178.521006962791,5.,130.143275526619));
#1640=CARTESIAN_POINT('',(181.521006962791,10.,130.143275526619));
#1641=CARTESIAN_POINT('Origin',(8.52100696279082,5.,133.643275526619));
#1642=CARTESIAN_POINT('',(8.52100696279081,5.,133.643275526619));
#1643=CARTESIAN_POINT('',(8.52100696279081,5.,4.14327552661938));
#1644=CARTESIAN_POINT('',(8.52100696279082,5.,101.268275526619));
#1645=CARTESIAN_POINT('',(8.52100696279082,5.,4.14327552661938));
#1646=CARTESIAN_POINT('',(8.52100696279082,5.,133.643275526619));
#1647=CARTESIAN_POINT('Origin',(8.52100696279082,5.,4.14327552661938));
#1648=CARTESIAN_POINT('',(81.0210069627908,5.,4.14327552661938));
#1649=CARTESIAN_POINT('Origin',(298.521006962791,5.,133.643275526619));
#1650=CARTESIAN_POINT('',(226.021006962791,5.,133.643275526619));
#1651=CARTESIAN_POINT('Origin',(12.0210069627908,5.,7.64327552661938));
#1652=CARTESIAN_POINT('',(9.02100696279081,5.,7.64327552661938));
#1653=CARTESIAN_POINT('',(9.02100696279081,5.,7.64327552661938));
#1654=CARTESIAN_POINT('Origin',(12.0210069627908,5.,7.64327552661938));
#1655=CARTESIAN_POINT('Origin',(12.0210069627908,10.,57.6432755266194));
#1656=CARTESIAN_POINT('',(15.0210069627908,5.,57.6432755266194));
#1657=CARTESIAN_POINT('Origin',(12.0210069627908,5.,57.6432755266194));
#1658=CARTESIAN_POINT('',(15.0210069627908,10.,57.6432755266194));
#1659=CARTESIAN_POINT('Origin',(12.0210069627908,10.,97.6432755266194));
#1660=CARTESIAN_POINT('',(15.0210069627908,5.,97.6432755266194));
#1661=CARTESIAN_POINT('Origin',(12.0210069627908,5.,97.6432755266194));
#1662=CARTESIAN_POINT('',(15.0210069627908,10.,97.6432755266194));
#1663=CARTESIAN_POINT('Origin',(295.021006962791,10.,97.6432755266194));
#1664=CARTESIAN_POINT('',(298.021006962791,5.,97.6432755266194));
#1665=CARTESIAN_POINT('Origin',(295.021006962791,5.,97.6432755266194));
#1666=CARTESIAN_POINT('',(298.021006962791,10.,97.6432755266194));
#1667=CARTESIAN_POINT('Origin',(153.521006962791,10.,7.64327552661938));
#1668=CARTESIAN_POINT('',(156.521006962791,5.,7.64327552661938));
#1669=CARTESIAN_POINT('Origin',(153.521006962791,5.,7.64327552661938));
#1670=CARTESIAN_POINT('',(156.521006962791,10.,7.64327552661938));
#1671=CARTESIAN_POINT('Origin',(295.021006962791,10.,57.6432755266194));
#1672=CARTESIAN_POINT('',(298.021006962791,5.,57.6432755266194));
#1673=CARTESIAN_POINT('Origin',(295.021006962791,5.,57.6432755266194));
#1674=CARTESIAN_POINT('',(298.021006962791,10.,57.6432755266194));
#1675=CARTESIAN_POINT('Origin',(128.521006962791,10.,130.143275526619));
#1676=CARTESIAN_POINT('',(131.521006962791,5.,130.143275526619));
#1677=CARTESIAN_POINT('Origin',(128.521006962791,5.,130.143275526619));
#1678=CARTESIAN_POINT('',(131.521006962791,10.,130.143275526619));
#1679=CARTESIAN_POINT('Origin',(295.021006962791,10.,7.64327552661938));
#1680=CARTESIAN_POINT('',(298.021006962791,5.,7.64327552661938));
#1681=CARTESIAN_POINT('Origin',(295.021006962791,5.,7.64327552661938));
#1682=CARTESIAN_POINT('',(298.021006962791,10.,7.64327552661938));
#1683=CARTESIAN_POINT('Origin',(226.021006962791,5.,68.8932755266194));
#1684=CARTESIAN_POINT('',(229.021006962791,5.,68.8932755266194));
#1685=CARTESIAN_POINT('',(229.021006962791,5.,68.8932755266194));
#1686=CARTESIAN_POINT('Origin',(226.021006962791,5.,68.8932755266194));
#1687=CARTESIAN_POINT('Origin',(153.521006962791,5.,68.8932755266194));
#1688=CARTESIAN_POINT('Origin',(81.0210069627908,10.,68.8932755266194));
#1689=UNCERTAINTY_MEASURE_WITH_UNIT(LENGTH_MEASURE(0.01),#1693,
'DISTANCE_ACCURACY_VALUE',
'Maximum model space distance between geometric entities at asserted c
onnectivities');
#1690=UNCERTAINTY_MEASURE_WITH_UNIT(LENGTH_MEASURE(0.01),#1693,
'DISTANCE_ACCURACY_VALUE',
'Maximum model space distance between geometric entities at asserted c
onnectivities');
#1691=(
GEOMETRIC_REPRESENTATION_CONTEXT(3)
GLOBAL_UNCERTAINTY_ASSIGNED_CONTEXT((#1689))
GLOBAL_UNIT_ASSIGNED_CONTEXT((#1693,#1695,#1696))
REPRESENTATION_CONTEXT('','3D')
);
#1692=(
GEOMETRIC_REPRESENTATION_CONTEXT(3)
GLOBAL_UNCERTAINTY_ASSIGNED_CONTEXT((#1690))
GLOBAL_UNIT_ASSIGNED_CONTEXT((#1693,#1695,#1696))
REPRESENTATION_CONTEXT('','3D')
);
#1693=(
LENGTH_UNIT()
NAMED_UNIT(*)
SI_UNIT(.MILLI.,.METRE.)
);
#1694=(
LENGTH_UNIT()
NAMED_UNIT(*)
SI_UNIT($,.METRE.)
);
#1695=(
NAMED_UNIT(*)
PLANE_ANGLE_UNIT()
SI_UNIT($,.RADIAN.)
);
#1696=(
NAMED_UNIT(*)
SI_UNIT($,.STERADIAN.)
SOLID_ANGLE_UNIT()
);
#1697=SHAPE_DEFINITION_REPRESENTATION(#1698,#1699);
#1698=PRODUCT_DEFINITION_SHAPE('',$,#1701);
#1699=SHAPE_REPRESENTATION('',(#977),#1691);
#1700=PRODUCT_DEFINITION_CONTEXT('part definition',#1705,'design');
#1701=PRODUCT_DEFINITION('2026-06-20-15-26-27-379','Case',#1702,#1700);
#1702=PRODUCT_DEFINITION_FORMATION('',$,#1707);
#1703=PRODUCT_RELATED_PRODUCT_CATEGORY('Case','Case',(#1707));
#1704=APPLICATION_PROTOCOL_DEFINITION('international standard',
'automotive_design',2009,#1705);
#1705=APPLICATION_CONTEXT(
'Core Data for Automotive Mechanical Design Process');
#1706=PRODUCT_CONTEXT('part definition',#1705,'mechanical');
#1707=PRODUCT('2026-06-20-15-26-27-379','Case',$,(#1706));
#1708=PRESENTATION_STYLE_ASSIGNMENT((#1709));
#1709=SURFACE_STYLE_USAGE(.BOTH.,#1710);
#1710=SURFACE_SIDE_STYLE('',(#1711));
#1711=SURFACE_STYLE_FILL_AREA(#1712);
#1712=FILL_AREA_STYLE('Steel - Satin',(#1713));
#1713=FILL_AREA_STYLE_COLOUR('Steel - Satin',#1714);
#1714=COLOUR_RGB('Steel - Satin',0.627450980392157,0.627450980392157,0.627450980392157);
ENDSEC;
END-ISO-10303-21;
