ISO-10303-21;
HEADER;
/* Generated by software containing ST-Developer
 * from STEP Tools, Inc. (www.steptools.com) 
 */

FILE_DESCRIPTION(
/* description */ (''),
/* implementation_level */ '2;1');

FILE_NAME(
/* name */ 'Top_Case.step',
/* time_stamp */ '2026-09-03T14:31:11-04:00',
/* author */ (''),
/* organization */ (''),
/* preprocessor_version */ 'ST-DEVELOPER v20.1',
/* originating_system */ 'Autodesk Translation Framework v15.8.0.0',
/* authorisation */ '');

FILE_SCHEMA (('AUTOMOTIVE_DESIGN { 1 0 10303 214 3 1 1 }'));
ENDSEC;

DATA;
#10=MECHANICAL_DESIGN_GEOMETRIC_PRESENTATION_REPRESENTATION('',(#13),#1143);
#11=SHAPE_REPRESENTATION_RELATIONSHIP('SRR','None',#1150,#12);
#12=ADVANCED_BREP_SHAPE_REPRESENTATION('',(#14),#1142);
#13=STYLED_ITEM('',(#1159),#14);
#14=MANIFOLD_SOLID_BREP('Body1',#659);
#15=CYLINDRICAL_SURFACE('',#681,1.00000000000001);
#16=CYLINDRICAL_SURFACE('',#685,0.999999999999996);
#17=CYLINDRICAL_SURFACE('',#689,1.00000000000001);
#18=CYLINDRICAL_SURFACE('',#693,1.00000000000001);
#19=CYLINDRICAL_SURFACE('',#697,1.00000000000001);
#20=CYLINDRICAL_SURFACE('',#701,1.00000000000001);
#21=CYLINDRICAL_SURFACE('',#705,1.00000000000001);
#22=CYLINDRICAL_SURFACE('',#709,1.);
#23=CYLINDRICAL_SURFACE('',#713,1.00000000000001);
#24=CYLINDRICAL_SURFACE('',#717,1.);
#25=CYLINDRICAL_SURFACE('',#721,0.999999999999996);
#26=CYLINDRICAL_SURFACE('',#725,1.00000000000001);
#27=CYLINDRICAL_SURFACE('',#729,1.00000000000001);
#28=CYLINDRICAL_SURFACE('',#733,5.);
#29=CYLINDRICAL_SURFACE('',#740,5.);
#30=CYLINDRICAL_SURFACE('',#742,5.);
#31=CYLINDRICAL_SURFACE('',#744,5.);
#32=FACE_BOUND('',#128,.T.);
#33=FACE_BOUND('',#158,.T.);
#34=FACE_BOUND('',#159,.T.);
#35=FACE_BOUND('',#160,.T.);
#36=FACE_BOUND('',#161,.T.);
#37=FACE_BOUND('',#162,.T.);
#38=FACE_BOUND('',#163,.T.);
#39=FACE_BOUND('',#164,.T.);
#40=FACE_BOUND('',#165,.T.);
#41=FACE_BOUND('',#166,.T.);
#42=FACE_BOUND('',#167,.T.);
#43=FACE_BOUND('',#168,.T.);
#44=FACE_BOUND('',#169,.T.);
#45=FACE_BOUND('',#170,.T.);
#46=FACE_BOUND('',#171,.T.);
#47=CIRCLE('',#677,5.);
#48=CIRCLE('',#678,5.);
#49=CIRCLE('',#679,5.);
#50=CIRCLE('',#680,5.);
#51=CIRCLE('',#682,1.00000000000001);
#52=CIRCLE('',#683,1.00000000000001);
#53=CIRCLE('',#686,0.999999999999996);
#54=CIRCLE('',#687,0.999999999999996);
#55=CIRCLE('',#690,1.00000000000001);
#56=CIRCLE('',#691,1.00000000000001);
#57=CIRCLE('',#694,1.00000000000001);
#58=CIRCLE('',#695,1.00000000000001);
#59=CIRCLE('',#698,1.00000000000001);
#60=CIRCLE('',#699,1.00000000000001);
#61=CIRCLE('',#702,1.00000000000001);
#62=CIRCLE('',#703,1.00000000000001);
#63=CIRCLE('',#706,1.00000000000001);
#64=CIRCLE('',#707,1.00000000000001);
#65=CIRCLE('',#710,1.);
#66=CIRCLE('',#711,1.);
#67=CIRCLE('',#714,1.00000000000001);
#68=CIRCLE('',#715,1.00000000000001);
#69=CIRCLE('',#718,1.);
#70=CIRCLE('',#719,1.);
#71=CIRCLE('',#722,0.999999999999996);
#72=CIRCLE('',#723,0.999999999999996);
#73=CIRCLE('',#726,1.00000000000001);
#74=CIRCLE('',#727,1.00000000000001);
#75=CIRCLE('',#730,1.00000000000001);
#76=CIRCLE('',#731,1.00000000000001);
#77=CIRCLE('',#734,5.);
#78=CIRCLE('',#737,5.);
#79=CIRCLE('',#738,5.);
#80=CIRCLE('',#739,5.);
#81=FACE_OUTER_BOUND('',#124,.T.);
#82=FACE_OUTER_BOUND('',#125,.T.);
#83=FACE_OUTER_BOUND('',#126,.T.);
#84=FACE_OUTER_BOUND('',#127,.T.);
#85=FACE_OUTER_BOUND('',#129,.T.);
#86=FACE_OUTER_BOUND('',#130,.T.);
#87=FACE_OUTER_BOUND('',#131,.T.);
#88=FACE_OUTER_BOUND('',#132,.T.);
#89=FACE_OUTER_BOUND('',#133,.T.);
#90=FACE_OUTER_BOUND('',#134,.T.);
#91=FACE_OUTER_BOUND('',#135,.T.);
#92=FACE_OUTER_BOUND('',#136,.T.);
#93=FACE_OUTER_BOUND('',#137,.T.);
#94=FACE_OUTER_BOUND('',#138,.T.);
#95=FACE_OUTER_BOUND('',#139,.T.);
#96=FACE_OUTER_BOUND('',#140,.T.);
#97=FACE_OUTER_BOUND('',#141,.T.);
#98=FACE_OUTER_BOUND('',#142,.T.);
#99=FACE_OUTER_BOUND('',#143,.T.);
#100=FACE_OUTER_BOUND('',#144,.T.);
#101=FACE_OUTER_BOUND('',#145,.T.);
#102=FACE_OUTER_BOUND('',#146,.T.);
#103=FACE_OUTER_BOUND('',#147,.T.);
#104=FACE_OUTER_BOUND('',#148,.T.);
#105=FACE_OUTER_BOUND('',#149,.T.);
#106=FACE_OUTER_BOUND('',#150,.T.);
#107=FACE_OUTER_BOUND('',#151,.T.);
#108=FACE_OUTER_BOUND('',#152,.T.);
#109=FACE_OUTER_BOUND('',#153,.T.);
#110=FACE_OUTER_BOUND('',#154,.T.);
#111=FACE_OUTER_BOUND('',#155,.T.);
#112=FACE_OUTER_BOUND('',#156,.T.);
#113=FACE_OUTER_BOUND('',#157,.T.);
#114=FACE_OUTER_BOUND('',#172,.T.);
#115=FACE_OUTER_BOUND('',#173,.T.);
#116=FACE_OUTER_BOUND('',#174,.T.);
#117=FACE_OUTER_BOUND('',#175,.T.);
#118=FACE_OUTER_BOUND('',#176,.T.);
#119=FACE_OUTER_BOUND('',#177,.T.);
#120=FACE_OUTER_BOUND('',#178,.T.);
#121=FACE_OUTER_BOUND('',#179,.T.);
#122=FACE_OUTER_BOUND('',#180,.T.);
#123=FACE_OUTER_BOUND('',#181,.T.);
#124=EDGE_LOOP('',(#422,#423,#424,#425));
#125=EDGE_LOOP('',(#426,#427,#428,#429));
#126=EDGE_LOOP('',(#430,#431,#432,#433));
#127=EDGE_LOOP('',(#434,#435,#436,#437,#438,#439,#440,#441));
#128=EDGE_LOOP('',(#442,#443,#444,#445,#446,#447));
#129=EDGE_LOOP('',(#448,#449,#450,#451));
#130=EDGE_LOOP('',(#452));
#131=EDGE_LOOP('',(#453,#454,#455,#456));
#132=EDGE_LOOP('',(#457));
#133=EDGE_LOOP('',(#458,#459,#460,#461));
#134=EDGE_LOOP('',(#462));
#135=EDGE_LOOP('',(#463,#464,#465,#466));
#136=EDGE_LOOP('',(#467));
#137=EDGE_LOOP('',(#468,#469,#470,#471));
#138=EDGE_LOOP('',(#472));
#139=EDGE_LOOP('',(#473,#474,#475,#476));
#140=EDGE_LOOP('',(#477));
#141=EDGE_LOOP('',(#478,#479,#480,#481));
#142=EDGE_LOOP('',(#482));
#143=EDGE_LOOP('',(#483,#484,#485,#486));
#144=EDGE_LOOP('',(#487));
#145=EDGE_LOOP('',(#488,#489,#490,#491));
#146=EDGE_LOOP('',(#492));
#147=EDGE_LOOP('',(#493,#494,#495,#496));
#148=EDGE_LOOP('',(#497));
#149=EDGE_LOOP('',(#498,#499,#500,#501));
#150=EDGE_LOOP('',(#502));
#151=EDGE_LOOP('',(#503,#504,#505,#506));
#152=EDGE_LOOP('',(#507));
#153=EDGE_LOOP('',(#508,#509,#510,#511));
#154=EDGE_LOOP('',(#512));
#155=EDGE_LOOP('',(#513,#514,#515,#516));
#156=EDGE_LOOP('',(#517,#518,#519,#520));
#157=EDGE_LOOP('',(#521,#522,#523,#524,#525,#526,#527,#528));
#158=EDGE_LOOP('',(#529));
#159=EDGE_LOOP('',(#530));
#160=EDGE_LOOP('',(#531));
#161=EDGE_LOOP('',(#532,#533,#534,#535));
#162=EDGE_LOOP('',(#536));
#163=EDGE_LOOP('',(#537));
#164=EDGE_LOOP('',(#538));
#165=EDGE_LOOP('',(#539));
#166=EDGE_LOOP('',(#540));
#167=EDGE_LOOP('',(#541));
#168=EDGE_LOOP('',(#542));
#169=EDGE_LOOP('',(#543));
#170=EDGE_LOOP('',(#544));
#171=EDGE_LOOP('',(#545));
#172=EDGE_LOOP('',(#546,#547,#548,#549));
#173=EDGE_LOOP('',(#550,#551,#552,#553));
#174=EDGE_LOOP('',(#554,#555,#556,#557));
#175=EDGE_LOOP('',(#558,#559,#560,#561));
#176=EDGE_LOOP('',(#562,#563,#564,#565));
#177=EDGE_LOOP('',(#566,#567,#568,#569));
#178=EDGE_LOOP('',(#570,#571,#572,#573));
#179=EDGE_LOOP('',(#574,#575,#576,#577,#578,#579));
#180=EDGE_LOOP('',(#580,#581,#582,#583,#584,#585));
#181=EDGE_LOOP('',(#586,#587,#588,#589));
#182=LINE('',#960,#232);
#183=LINE('',#962,#233);
#184=LINE('',#964,#234);
#185=LINE('',#965,#235);
#186=LINE('',#968,#236);
#187=LINE('',#970,#237);
#188=LINE('',#971,#238);
#189=LINE('',#974,#239);
#190=LINE('',#975,#240);
#191=LINE('',#981,#241);
#192=LINE('',#985,#242);
#193=LINE('',#989,#243);
#194=LINE('',#992,#244);
#195=LINE('',#994,#245);
#196=LINE('',#996,#246);
#197=LINE('',#998,#247);
#198=LINE('',#999,#248);
#199=LINE('',#1004,#249);
#200=LINE('',#1011,#250);
#201=LINE('',#1018,#251);
#202=LINE('',#1025,#252);
#203=LINE('',#1032,#253);
#204=LINE('',#1039,#254);
#205=LINE('',#1046,#255);
#206=LINE('',#1053,#256);
#207=LINE('',#1060,#257);
#208=LINE('',#1067,#258);
#209=LINE('',#1074,#259);
#210=LINE('',#1081,#260);
#211=LINE('',#1088,#261);
#212=LINE('',#1095,#262);
#213=LINE('',#1096,#263);
#214=LINE('',#1099,#264);
#215=LINE('',#1100,#265);
#216=LINE('',#1103,#266);
#217=LINE('',#1107,#267);
#218=LINE('',#1111,#268);
#219=LINE('',#1115,#269);
#220=LINE('',#1117,#270);
#221=LINE('',#1119,#271);
#222=LINE('',#1120,#272);
#223=LINE('',#1122,#273);
#224=LINE('',#1124,#274);
#225=LINE('',#1126,#275);
#226=LINE('',#1128,#276);
#227=LINE('',#1130,#277);
#228=LINE('',#1132,#278);
#229=LINE('',#1133,#279);
#230=LINE('',#1135,#280);
#231=LINE('',#1137,#281);
#232=VECTOR('',#754,10.);
#233=VECTOR('',#755,10.);
#234=VECTOR('',#756,10.);
#235=VECTOR('',#757,10.);
#236=VECTOR('',#760,10.);
#237=VECTOR('',#761,10.);
#238=VECTOR('',#762,10.);
#239=VECTOR('',#765,10.);
#240=VECTOR('',#766,10.);
#241=VECTOR('',#771,10.);
#242=VECTOR('',#774,10.);
#243=VECTOR('',#777,10.);
#244=VECTOR('',#780,10.);
#245=VECTOR('',#781,10.);
#246=VECTOR('',#782,10.);
#247=VECTOR('',#783,10.);
#248=VECTOR('',#784,10.);
#249=VECTOR('',#789,1.00000000000001);
#250=VECTOR('',#798,0.999999999999996);
#251=VECTOR('',#807,1.00000000000001);
#252=VECTOR('',#816,1.00000000000001);
#253=VECTOR('',#825,1.00000000000001);
#254=VECTOR('',#834,1.00000000000001);
#255=VECTOR('',#843,1.00000000000001);
#256=VECTOR('',#852,1.);
#257=VECTOR('',#861,1.00000000000001);
#258=VECTOR('',#870,1.);
#259=VECTOR('',#879,0.999999999999996);
#260=VECTOR('',#888,1.00000000000001);
#261=VECTOR('',#897,1.00000000000001);
#262=VECTOR('',#906,10.);
#263=VECTOR('',#907,10.);
#264=VECTOR('',#910,10.);
#265=VECTOR('',#911,10.);
#266=VECTOR('',#914,10.);
#267=VECTOR('',#917,10.);
#268=VECTOR('',#920,10.);
#269=VECTOR('',#923,10.);
#270=VECTOR('',#924,10.);
#271=VECTOR('',#925,10.);
#272=VECTOR('',#926,10.);
#273=VECTOR('',#929,10.);
#274=VECTOR('',#932,10.);
#275=VECTOR('',#935,10.);
#276=VECTOR('',#938,10.);
#277=VECTOR('',#941,10.);
#278=VECTOR('',#944,10.);
#279=VECTOR('',#945,10.);
#280=VECTOR('',#948,10.);
#281=VECTOR('',#951,10.);
#282=VERTEX_POINT('',#958);
#283=VERTEX_POINT('',#959);
#284=VERTEX_POINT('',#961);
#285=VERTEX_POINT('',#963);
#286=VERTEX_POINT('',#967);
#287=VERTEX_POINT('',#969);
#288=VERTEX_POINT('',#973);
#289=VERTEX_POINT('',#977);
#290=VERTEX_POINT('',#978);
#291=VERTEX_POINT('',#980);
#292=VERTEX_POINT('',#982);
#293=VERTEX_POINT('',#984);
#294=VERTEX_POINT('',#986);
#295=VERTEX_POINT('',#988);
#296=VERTEX_POINT('',#990);
#297=VERTEX_POINT('',#993);
#298=VERTEX_POINT('',#995);
#299=VERTEX_POINT('',#997);
#300=VERTEX_POINT('',#1001);
#301=VERTEX_POINT('',#1003);
#302=VERTEX_POINT('',#1008);
#303=VERTEX_POINT('',#1010);
#304=VERTEX_POINT('',#1015);
#305=VERTEX_POINT('',#1017);
#306=VERTEX_POINT('',#1022);
#307=VERTEX_POINT('',#1024);
#308=VERTEX_POINT('',#1029);
#309=VERTEX_POINT('',#1031);
#310=VERTEX_POINT('',#1036);
#311=VERTEX_POINT('',#1038);
#312=VERTEX_POINT('',#1043);
#313=VERTEX_POINT('',#1045);
#314=VERTEX_POINT('',#1050);
#315=VERTEX_POINT('',#1052);
#316=VERTEX_POINT('',#1057);
#317=VERTEX_POINT('',#1059);
#318=VERTEX_POINT('',#1064);
#319=VERTEX_POINT('',#1066);
#320=VERTEX_POINT('',#1071);
#321=VERTEX_POINT('',#1073);
#322=VERTEX_POINT('',#1078);
#323=VERTEX_POINT('',#1080);
#324=VERTEX_POINT('',#1085);
#325=VERTEX_POINT('',#1087);
#326=VERTEX_POINT('',#1092);
#327=VERTEX_POINT('',#1093);
#328=VERTEX_POINT('',#1098);
#329=VERTEX_POINT('',#1102);
#330=VERTEX_POINT('',#1104);
#331=VERTEX_POINT('',#1106);
#332=VERTEX_POINT('',#1108);
#333=VERTEX_POINT('',#1110);
#334=VERTEX_POINT('',#1113);
#335=VERTEX_POINT('',#1114);
#336=VERTEX_POINT('',#1116);
#337=VERTEX_POINT('',#1118);
#338=EDGE_CURVE('',#282,#283,#182,.T.);
#339=EDGE_CURVE('',#284,#282,#183,.T.);
#340=EDGE_CURVE('',#285,#284,#184,.T.);
#341=EDGE_CURVE('',#283,#285,#185,.T.);
#342=EDGE_CURVE('',#283,#286,#186,.T.);
#343=EDGE_CURVE('',#287,#286,#187,.T.);
#344=EDGE_CURVE('',#282,#287,#188,.T.);
#345=EDGE_CURVE('',#285,#288,#189,.T.);
#346=EDGE_CURVE('',#286,#288,#190,.T.);
#347=EDGE_CURVE('',#289,#290,#47,.T.);
#348=EDGE_CURVE('',#290,#291,#191,.T.);
#349=EDGE_CURVE('',#291,#292,#48,.T.);
#350=EDGE_CURVE('',#292,#293,#192,.T.);
#351=EDGE_CURVE('',#293,#294,#49,.T.);
#352=EDGE_CURVE('',#294,#295,#193,.T.);
#353=EDGE_CURVE('',#295,#296,#50,.T.);
#354=EDGE_CURVE('',#296,#289,#194,.T.);
#355=EDGE_CURVE('',#288,#297,#195,.T.);
#356=EDGE_CURVE('',#297,#298,#196,.T.);
#357=EDGE_CURVE('',#298,#299,#197,.T.);
#358=EDGE_CURVE('',#299,#287,#198,.T.);
#359=EDGE_CURVE('',#300,#300,#51,.T.);
#360=EDGE_CURVE('',#300,#301,#199,.T.);
#361=EDGE_CURVE('',#301,#301,#52,.T.);
#362=EDGE_CURVE('',#302,#302,#53,.T.);
#363=EDGE_CURVE('',#302,#303,#200,.T.);
#364=EDGE_CURVE('',#303,#303,#54,.T.);
#365=EDGE_CURVE('',#304,#304,#55,.T.);
#366=EDGE_CURVE('',#304,#305,#201,.T.);
#367=EDGE_CURVE('',#305,#305,#56,.T.);
#368=EDGE_CURVE('',#306,#306,#57,.T.);
#369=EDGE_CURVE('',#306,#307,#202,.T.);
#370=EDGE_CURVE('',#307,#307,#58,.T.);
#371=EDGE_CURVE('',#308,#308,#59,.T.);
#372=EDGE_CURVE('',#308,#309,#203,.T.);
#373=EDGE_CURVE('',#309,#309,#60,.T.);
#374=EDGE_CURVE('',#310,#310,#61,.T.);
#375=EDGE_CURVE('',#310,#311,#204,.T.);
#376=EDGE_CURVE('',#311,#311,#62,.T.);
#377=EDGE_CURVE('',#312,#312,#63,.T.);
#378=EDGE_CURVE('',#312,#313,#205,.T.);
#379=EDGE_CURVE('',#313,#313,#64,.T.);
#380=EDGE_CURVE('',#314,#314,#65,.T.);
#381=EDGE_CURVE('',#314,#315,#206,.T.);
#382=EDGE_CURVE('',#315,#315,#66,.T.);
#383=EDGE_CURVE('',#316,#316,#67,.T.);
#384=EDGE_CURVE('',#316,#317,#207,.T.);
#385=EDGE_CURVE('',#317,#317,#68,.T.);
#386=EDGE_CURVE('',#318,#318,#69,.T.);
#387=EDGE_CURVE('',#318,#319,#208,.T.);
#388=EDGE_CURVE('',#319,#319,#70,.T.);
#389=EDGE_CURVE('',#320,#320,#71,.T.);
#390=EDGE_CURVE('',#320,#321,#209,.T.);
#391=EDGE_CURVE('',#321,#321,#72,.T.);
#392=EDGE_CURVE('',#322,#322,#73,.T.);
#393=EDGE_CURVE('',#322,#323,#210,.T.);
#394=EDGE_CURVE('',#323,#323,#74,.T.);
#395=EDGE_CURVE('',#324,#324,#75,.T.);
#396=EDGE_CURVE('',#324,#325,#211,.T.);
#397=EDGE_CURVE('',#325,#325,#76,.T.);
#398=EDGE_CURVE('',#326,#327,#77,.T.);
#399=EDGE_CURVE('',#327,#290,#212,.T.);
#400=EDGE_CURVE('',#289,#326,#213,.T.);
#401=EDGE_CURVE('',#328,#327,#214,.T.);
#402=EDGE_CURVE('',#291,#328,#215,.T.);
#403=EDGE_CURVE('',#326,#329,#216,.T.);
#404=EDGE_CURVE('',#330,#329,#78,.T.);
#405=EDGE_CURVE('',#330,#331,#217,.T.);
#406=EDGE_CURVE('',#332,#331,#79,.T.);
#407=EDGE_CURVE('',#332,#333,#218,.T.);
#408=EDGE_CURVE('',#328,#333,#80,.T.);
#409=EDGE_CURVE('',#334,#335,#219,.T.);
#410=EDGE_CURVE('',#335,#336,#220,.T.);
#411=EDGE_CURVE('',#336,#337,#221,.T.);
#412=EDGE_CURVE('',#337,#334,#222,.T.);
#413=EDGE_CURVE('',#333,#292,#223,.T.);
#414=EDGE_CURVE('',#293,#332,#224,.T.);
#415=EDGE_CURVE('',#331,#294,#225,.T.);
#416=EDGE_CURVE('',#295,#330,#226,.T.);
#417=EDGE_CURVE('',#329,#296,#227,.T.);
#418=EDGE_CURVE('',#334,#298,#228,.T.);
#419=EDGE_CURVE('',#335,#297,#229,.T.);
#420=EDGE_CURVE('',#337,#299,#230,.T.);
#421=EDGE_CURVE('',#336,#284,#231,.T.);
#422=ORIENTED_EDGE('',*,*,#338,.F.);
#423=ORIENTED_EDGE('',*,*,#339,.F.);
#424=ORIENTED_EDGE('',*,*,#340,.F.);
#425=ORIENTED_EDGE('',*,*,#341,.F.);
#426=ORIENTED_EDGE('',*,*,#338,.T.);
#427=ORIENTED_EDGE('',*,*,#342,.T.);
#428=ORIENTED_EDGE('',*,*,#343,.F.);
#429=ORIENTED_EDGE('',*,*,#344,.F.);
#430=ORIENTED_EDGE('',*,*,#341,.T.);
#431=ORIENTED_EDGE('',*,*,#345,.T.);
#432=ORIENTED_EDGE('',*,*,#346,.F.);
#433=ORIENTED_EDGE('',*,*,#342,.F.);
#434=ORIENTED_EDGE('',*,*,#347,.T.);
#435=ORIENTED_EDGE('',*,*,#348,.T.);
#436=ORIENTED_EDGE('',*,*,#349,.T.);
#437=ORIENTED_EDGE('',*,*,#350,.T.);
#438=ORIENTED_EDGE('',*,*,#351,.T.);
#439=ORIENTED_EDGE('',*,*,#352,.T.);
#440=ORIENTED_EDGE('',*,*,#353,.T.);
#441=ORIENTED_EDGE('',*,*,#354,.T.);
#442=ORIENTED_EDGE('',*,*,#343,.T.);
#443=ORIENTED_EDGE('',*,*,#346,.T.);
#444=ORIENTED_EDGE('',*,*,#355,.T.);
#445=ORIENTED_EDGE('',*,*,#356,.T.);
#446=ORIENTED_EDGE('',*,*,#357,.T.);
#447=ORIENTED_EDGE('',*,*,#358,.T.);
#448=ORIENTED_EDGE('',*,*,#359,.F.);
#449=ORIENTED_EDGE('',*,*,#360,.T.);
#450=ORIENTED_EDGE('',*,*,#361,.F.);
#451=ORIENTED_EDGE('',*,*,#360,.F.);
#452=ORIENTED_EDGE('',*,*,#359,.T.);
#453=ORIENTED_EDGE('',*,*,#362,.F.);
#454=ORIENTED_EDGE('',*,*,#363,.T.);
#455=ORIENTED_EDGE('',*,*,#364,.F.);
#456=ORIENTED_EDGE('',*,*,#363,.F.);
#457=ORIENTED_EDGE('',*,*,#362,.T.);
#458=ORIENTED_EDGE('',*,*,#365,.F.);
#459=ORIENTED_EDGE('',*,*,#366,.T.);
#460=ORIENTED_EDGE('',*,*,#367,.F.);
#461=ORIENTED_EDGE('',*,*,#366,.F.);
#462=ORIENTED_EDGE('',*,*,#365,.T.);
#463=ORIENTED_EDGE('',*,*,#368,.F.);
#464=ORIENTED_EDGE('',*,*,#369,.T.);
#465=ORIENTED_EDGE('',*,*,#370,.F.);
#466=ORIENTED_EDGE('',*,*,#369,.F.);
#467=ORIENTED_EDGE('',*,*,#368,.T.);
#468=ORIENTED_EDGE('',*,*,#371,.F.);
#469=ORIENTED_EDGE('',*,*,#372,.T.);
#470=ORIENTED_EDGE('',*,*,#373,.F.);
#471=ORIENTED_EDGE('',*,*,#372,.F.);
#472=ORIENTED_EDGE('',*,*,#371,.T.);
#473=ORIENTED_EDGE('',*,*,#374,.F.);
#474=ORIENTED_EDGE('',*,*,#375,.T.);
#475=ORIENTED_EDGE('',*,*,#376,.F.);
#476=ORIENTED_EDGE('',*,*,#375,.F.);
#477=ORIENTED_EDGE('',*,*,#374,.T.);
#478=ORIENTED_EDGE('',*,*,#377,.F.);
#479=ORIENTED_EDGE('',*,*,#378,.T.);
#480=ORIENTED_EDGE('',*,*,#379,.F.);
#481=ORIENTED_EDGE('',*,*,#378,.F.);
#482=ORIENTED_EDGE('',*,*,#377,.T.);
#483=ORIENTED_EDGE('',*,*,#380,.F.);
#484=ORIENTED_EDGE('',*,*,#381,.T.);
#485=ORIENTED_EDGE('',*,*,#382,.F.);
#486=ORIENTED_EDGE('',*,*,#381,.F.);
#487=ORIENTED_EDGE('',*,*,#380,.T.);
#488=ORIENTED_EDGE('',*,*,#383,.F.);
#489=ORIENTED_EDGE('',*,*,#384,.T.);
#490=ORIENTED_EDGE('',*,*,#385,.F.);
#491=ORIENTED_EDGE('',*,*,#384,.F.);
#492=ORIENTED_EDGE('',*,*,#383,.T.);
#493=ORIENTED_EDGE('',*,*,#386,.F.);
#494=ORIENTED_EDGE('',*,*,#387,.T.);
#495=ORIENTED_EDGE('',*,*,#388,.F.);
#496=ORIENTED_EDGE('',*,*,#387,.F.);
#497=ORIENTED_EDGE('',*,*,#386,.T.);
#498=ORIENTED_EDGE('',*,*,#389,.F.);
#499=ORIENTED_EDGE('',*,*,#390,.T.);
#500=ORIENTED_EDGE('',*,*,#391,.F.);
#501=ORIENTED_EDGE('',*,*,#390,.F.);
#502=ORIENTED_EDGE('',*,*,#389,.T.);
#503=ORIENTED_EDGE('',*,*,#392,.F.);
#504=ORIENTED_EDGE('',*,*,#393,.T.);
#505=ORIENTED_EDGE('',*,*,#394,.F.);
#506=ORIENTED_EDGE('',*,*,#393,.F.);
#507=ORIENTED_EDGE('',*,*,#392,.T.);
#508=ORIENTED_EDGE('',*,*,#395,.F.);
#509=ORIENTED_EDGE('',*,*,#396,.T.);
#510=ORIENTED_EDGE('',*,*,#397,.F.);
#511=ORIENTED_EDGE('',*,*,#396,.F.);
#512=ORIENTED_EDGE('',*,*,#395,.T.);
#513=ORIENTED_EDGE('',*,*,#398,.T.);
#514=ORIENTED_EDGE('',*,*,#399,.T.);
#515=ORIENTED_EDGE('',*,*,#347,.F.);
#516=ORIENTED_EDGE('',*,*,#400,.T.);
#517=ORIENTED_EDGE('',*,*,#399,.F.);
#518=ORIENTED_EDGE('',*,*,#401,.F.);
#519=ORIENTED_EDGE('',*,*,#402,.F.);
#520=ORIENTED_EDGE('',*,*,#348,.F.);
#521=ORIENTED_EDGE('',*,*,#398,.F.);
#522=ORIENTED_EDGE('',*,*,#403,.T.);
#523=ORIENTED_EDGE('',*,*,#404,.F.);
#524=ORIENTED_EDGE('',*,*,#405,.T.);
#525=ORIENTED_EDGE('',*,*,#406,.F.);
#526=ORIENTED_EDGE('',*,*,#407,.T.);
#527=ORIENTED_EDGE('',*,*,#408,.F.);
#528=ORIENTED_EDGE('',*,*,#401,.T.);
#529=ORIENTED_EDGE('',*,*,#364,.T.);
#530=ORIENTED_EDGE('',*,*,#370,.T.);
#531=ORIENTED_EDGE('',*,*,#376,.T.);
#532=ORIENTED_EDGE('',*,*,#409,.T.);
#533=ORIENTED_EDGE('',*,*,#410,.T.);
#534=ORIENTED_EDGE('',*,*,#411,.T.);
#535=ORIENTED_EDGE('',*,*,#412,.T.);
#536=ORIENTED_EDGE('',*,*,#397,.T.);
#537=ORIENTED_EDGE('',*,*,#394,.T.);
#538=ORIENTED_EDGE('',*,*,#391,.T.);
#539=ORIENTED_EDGE('',*,*,#388,.T.);
#540=ORIENTED_EDGE('',*,*,#385,.T.);
#541=ORIENTED_EDGE('',*,*,#382,.T.);
#542=ORIENTED_EDGE('',*,*,#379,.T.);
#543=ORIENTED_EDGE('',*,*,#373,.T.);
#544=ORIENTED_EDGE('',*,*,#367,.T.);
#545=ORIENTED_EDGE('',*,*,#361,.T.);
#546=ORIENTED_EDGE('',*,*,#408,.T.);
#547=ORIENTED_EDGE('',*,*,#413,.T.);
#548=ORIENTED_EDGE('',*,*,#349,.F.);
#549=ORIENTED_EDGE('',*,*,#402,.T.);
#550=ORIENTED_EDGE('',*,*,#413,.F.);
#551=ORIENTED_EDGE('',*,*,#407,.F.);
#552=ORIENTED_EDGE('',*,*,#414,.F.);
#553=ORIENTED_EDGE('',*,*,#350,.F.);
#554=ORIENTED_EDGE('',*,*,#406,.T.);
#555=ORIENTED_EDGE('',*,*,#415,.T.);
#556=ORIENTED_EDGE('',*,*,#351,.F.);
#557=ORIENTED_EDGE('',*,*,#414,.T.);
#558=ORIENTED_EDGE('',*,*,#415,.F.);
#559=ORIENTED_EDGE('',*,*,#405,.F.);
#560=ORIENTED_EDGE('',*,*,#416,.F.);
#561=ORIENTED_EDGE('',*,*,#352,.F.);
#562=ORIENTED_EDGE('',*,*,#404,.T.);
#563=ORIENTED_EDGE('',*,*,#417,.T.);
#564=ORIENTED_EDGE('',*,*,#353,.F.);
#565=ORIENTED_EDGE('',*,*,#416,.T.);
#566=ORIENTED_EDGE('',*,*,#409,.F.);
#567=ORIENTED_EDGE('',*,*,#418,.T.);
#568=ORIENTED_EDGE('',*,*,#356,.F.);
#569=ORIENTED_EDGE('',*,*,#419,.F.);
#570=ORIENTED_EDGE('',*,*,#412,.F.);
#571=ORIENTED_EDGE('',*,*,#420,.T.);
#572=ORIENTED_EDGE('',*,*,#357,.F.);
#573=ORIENTED_EDGE('',*,*,#418,.F.);
#574=ORIENTED_EDGE('',*,*,#411,.F.);
#575=ORIENTED_EDGE('',*,*,#421,.T.);
#576=ORIENTED_EDGE('',*,*,#339,.T.);
#577=ORIENTED_EDGE('',*,*,#344,.T.);
#578=ORIENTED_EDGE('',*,*,#358,.F.);
#579=ORIENTED_EDGE('',*,*,#420,.F.);
#580=ORIENTED_EDGE('',*,*,#410,.F.);
#581=ORIENTED_EDGE('',*,*,#419,.T.);
#582=ORIENTED_EDGE('',*,*,#355,.F.);
#583=ORIENTED_EDGE('',*,*,#345,.F.);
#584=ORIENTED_EDGE('',*,*,#340,.T.);
#585=ORIENTED_EDGE('',*,*,#421,.F.);
#586=ORIENTED_EDGE('',*,*,#400,.F.);
#587=ORIENTED_EDGE('',*,*,#354,.F.);
#588=ORIENTED_EDGE('',*,*,#417,.F.);
#589=ORIENTED_EDGE('',*,*,#403,.F.);
#590=PLANE('',#673);
#591=PLANE('',#674);
#592=PLANE('',#675);
#593=PLANE('',#676);
#594=PLANE('',#684);
#595=PLANE('',#688);
#596=PLANE('',#692);
#597=PLANE('',#696);
#598=PLANE('',#700);
#599=PLANE('',#704);
#600=PLANE('',#708);
#601=PLANE('',#712);
#602=PLANE('',#716);
#603=PLANE('',#720);
#604=PLANE('',#724);
#605=PLANE('',#728);
#606=PLANE('',#732);
#607=PLANE('',#735);
#608=PLANE('',#736);
#609=PLANE('',#741);
#610=PLANE('',#743);
#611=PLANE('',#745);
#612=PLANE('',#746);
#613=PLANE('',#747);
#614=PLANE('',#748);
#615=PLANE('',#749);
#616=ADVANCED_FACE('',(#81),#590,.F.);
#617=ADVANCED_FACE('',(#82),#591,.T.);
#618=ADVANCED_FACE('',(#83),#592,.T.);
#619=ADVANCED_FACE('',(#84,#32),#593,.T.);
#620=ADVANCED_FACE('',(#85),#15,.T.);
#621=ADVANCED_FACE('',(#86),#594,.T.);
#622=ADVANCED_FACE('',(#87),#16,.T.);
#623=ADVANCED_FACE('',(#88),#595,.T.);
#624=ADVANCED_FACE('',(#89),#17,.T.);
#625=ADVANCED_FACE('',(#90),#596,.T.);
#626=ADVANCED_FACE('',(#91),#18,.T.);
#627=ADVANCED_FACE('',(#92),#597,.T.);
#628=ADVANCED_FACE('',(#93),#19,.T.);
#629=ADVANCED_FACE('',(#94),#598,.T.);
#630=ADVANCED_FACE('',(#95),#20,.T.);
#631=ADVANCED_FACE('',(#96),#599,.T.);
#632=ADVANCED_FACE('',(#97),#21,.T.);
#633=ADVANCED_FACE('',(#98),#600,.T.);
#634=ADVANCED_FACE('',(#99),#22,.T.);
#635=ADVANCED_FACE('',(#100),#601,.T.);
#636=ADVANCED_FACE('',(#101),#23,.T.);
#637=ADVANCED_FACE('',(#102),#602,.T.);
#638=ADVANCED_FACE('',(#103),#24,.T.);
#639=ADVANCED_FACE('',(#104),#603,.T.);
#640=ADVANCED_FACE('',(#105),#25,.T.);
#641=ADVANCED_FACE('',(#106),#604,.T.);
#642=ADVANCED_FACE('',(#107),#26,.T.);
#643=ADVANCED_FACE('',(#108),#605,.T.);
#644=ADVANCED_FACE('',(#109),#27,.T.);
#645=ADVANCED_FACE('',(#110),#606,.T.);
#646=ADVANCED_FACE('',(#111),#28,.T.);
#647=ADVANCED_FACE('',(#112),#607,.T.);
#648=ADVANCED_FACE('',(#113,#33,#34,#35,#36,#37,#38,#39,#40,#41,#42,#43,
#44,#45,#46),#608,.T.);
#649=ADVANCED_FACE('',(#114),#29,.T.);
#650=ADVANCED_FACE('',(#115),#609,.T.);
#651=ADVANCED_FACE('',(#116),#30,.T.);
#652=ADVANCED_FACE('',(#117),#610,.T.);
#653=ADVANCED_FACE('',(#118),#31,.T.);
#654=ADVANCED_FACE('',(#119),#611,.F.);
#655=ADVANCED_FACE('',(#120),#612,.F.);
#656=ADVANCED_FACE('',(#121),#613,.F.);
#657=ADVANCED_FACE('',(#122),#614,.F.);
#658=ADVANCED_FACE('',(#123),#615,.T.);
#659=CLOSED_SHELL('',(#616,#617,#618,#619,#620,#621,#622,#623,#624,#625,
#626,#627,#628,#629,#630,#631,#632,#633,#634,#635,#636,#637,#638,#639,#640,
#641,#642,#643,#644,#645,#646,#647,#648,#649,#650,#651,#652,#653,#654,#655,
#656,#657,#658));
#660=DERIVED_UNIT_ELEMENT(#662,1.);
#661=DERIVED_UNIT_ELEMENT(#1145,-3.);
#662=(
MASS_UNIT()
NAMED_UNIT(*)
SI_UNIT(.KILO.,.GRAM.)
);
#663=DERIVED_UNIT((#660,#661));
#664=MEASURE_REPRESENTATION_ITEM('density measure',
POSITIVE_RATIO_MEASURE(7850.),#663);
#665=PROPERTY_DEFINITION_REPRESENTATION(#670,#667);
#666=PROPERTY_DEFINITION_REPRESENTATION(#671,#668);
#667=REPRESENTATION('material name',(#669),#1142);
#668=REPRESENTATION('density',(#664),#1142);
#669=DESCRIPTIVE_REPRESENTATION_ITEM('Steel','Steel');
#670=PROPERTY_DEFINITION('material property','material name',#1152);
#671=PROPERTY_DEFINITION('material property','density of part',#1152);
#672=AXIS2_PLACEMENT_3D('',#956,#750,#751);
#673=AXIS2_PLACEMENT_3D('',#957,#752,#753);
#674=AXIS2_PLACEMENT_3D('',#966,#758,#759);
#675=AXIS2_PLACEMENT_3D('',#972,#763,#764);
#676=AXIS2_PLACEMENT_3D('',#976,#767,#768);
#677=AXIS2_PLACEMENT_3D('',#979,#769,#770);
#678=AXIS2_PLACEMENT_3D('',#983,#772,#773);
#679=AXIS2_PLACEMENT_3D('',#987,#775,#776);
#680=AXIS2_PLACEMENT_3D('',#991,#778,#779);
#681=AXIS2_PLACEMENT_3D('',#1000,#785,#786);
#682=AXIS2_PLACEMENT_3D('',#1002,#787,#788);
#683=AXIS2_PLACEMENT_3D('',#1005,#790,#791);
#684=AXIS2_PLACEMENT_3D('',#1006,#792,#793);
#685=AXIS2_PLACEMENT_3D('',#1007,#794,#795);
#686=AXIS2_PLACEMENT_3D('',#1009,#796,#797);
#687=AXIS2_PLACEMENT_3D('',#1012,#799,#800);
#688=AXIS2_PLACEMENT_3D('',#1013,#801,#802);
#689=AXIS2_PLACEMENT_3D('',#1014,#803,#804);
#690=AXIS2_PLACEMENT_3D('',#1016,#805,#806);
#691=AXIS2_PLACEMENT_3D('',#1019,#808,#809);
#692=AXIS2_PLACEMENT_3D('',#1020,#810,#811);
#693=AXIS2_PLACEMENT_3D('',#1021,#812,#813);
#694=AXIS2_PLACEMENT_3D('',#1023,#814,#815);
#695=AXIS2_PLACEMENT_3D('',#1026,#817,#818);
#696=AXIS2_PLACEMENT_3D('',#1027,#819,#820);
#697=AXIS2_PLACEMENT_3D('',#1028,#821,#822);
#698=AXIS2_PLACEMENT_3D('',#1030,#823,#824);
#699=AXIS2_PLACEMENT_3D('',#1033,#826,#827);
#700=AXIS2_PLACEMENT_3D('',#1034,#828,#829);
#701=AXIS2_PLACEMENT_3D('',#1035,#830,#831);
#702=AXIS2_PLACEMENT_3D('',#1037,#832,#833);
#703=AXIS2_PLACEMENT_3D('',#1040,#835,#836);
#704=AXIS2_PLACEMENT_3D('',#1041,#837,#838);
#705=AXIS2_PLACEMENT_3D('',#1042,#839,#840);
#706=AXIS2_PLACEMENT_3D('',#1044,#841,#842);
#707=AXIS2_PLACEMENT_3D('',#1047,#844,#845);
#708=AXIS2_PLACEMENT_3D('',#1048,#846,#847);
#709=AXIS2_PLACEMENT_3D('',#1049,#848,#849);
#710=AXIS2_PLACEMENT_3D('',#1051,#850,#851);
#711=AXIS2_PLACEMENT_3D('',#1054,#853,#854);
#712=AXIS2_PLACEMENT_3D('',#1055,#855,#856);
#713=AXIS2_PLACEMENT_3D('',#1056,#857,#858);
#714=AXIS2_PLACEMENT_3D('',#1058,#859,#860);
#715=AXIS2_PLACEMENT_3D('',#1061,#862,#863);
#716=AXIS2_PLACEMENT_3D('',#1062,#864,#865);
#717=AXIS2_PLACEMENT_3D('',#1063,#866,#867);
#718=AXIS2_PLACEMENT_3D('',#1065,#868,#869);
#719=AXIS2_PLACEMENT_3D('',#1068,#871,#872);
#720=AXIS2_PLACEMENT_3D('',#1069,#873,#874);
#721=AXIS2_PLACEMENT_3D('',#1070,#875,#876);
#722=AXIS2_PLACEMENT_3D('',#1072,#877,#878);
#723=AXIS2_PLACEMENT_3D('',#1075,#880,#881);
#724=AXIS2_PLACEMENT_3D('',#1076,#882,#883);
#725=AXIS2_PLACEMENT_3D('',#1077,#884,#885);
#726=AXIS2_PLACEMENT_3D('',#1079,#886,#887);
#727=AXIS2_PLACEMENT_3D('',#1082,#889,#890);
#728=AXIS2_PLACEMENT_3D('',#1083,#891,#892);
#729=AXIS2_PLACEMENT_3D('',#1084,#893,#894);
#730=AXIS2_PLACEMENT_3D('',#1086,#895,#896);
#731=AXIS2_PLACEMENT_3D('',#1089,#898,#899);
#732=AXIS2_PLACEMENT_3D('',#1090,#900,#901);
#733=AXIS2_PLACEMENT_3D('',#1091,#902,#903);
#734=AXIS2_PLACEMENT_3D('',#1094,#904,#905);
#735=AXIS2_PLACEMENT_3D('',#1097,#908,#909);
#736=AXIS2_PLACEMENT_3D('',#1101,#912,#913);
#737=AXIS2_PLACEMENT_3D('',#1105,#915,#916);
#738=AXIS2_PLACEMENT_3D('',#1109,#918,#919);
#739=AXIS2_PLACEMENT_3D('',#1112,#921,#922);
#740=AXIS2_PLACEMENT_3D('',#1121,#927,#928);
#741=AXIS2_PLACEMENT_3D('',#1123,#930,#931);
#742=AXIS2_PLACEMENT_3D('',#1125,#933,#934);
#743=AXIS2_PLACEMENT_3D('',#1127,#936,#937);
#744=AXIS2_PLACEMENT_3D('',#1129,#939,#940);
#745=AXIS2_PLACEMENT_3D('',#1131,#942,#943);
#746=AXIS2_PLACEMENT_3D('',#1134,#946,#947);
#747=AXIS2_PLACEMENT_3D('',#1136,#949,#950);
#748=AXIS2_PLACEMENT_3D('',#1138,#952,#953);
#749=AXIS2_PLACEMENT_3D('',#1139,#954,#955);
#750=DIRECTION('axis',(0.,0.,1.));
#751=DIRECTION('refdir',(1.,0.,0.));
#752=DIRECTION('center_axis',(0.,-1.,0.));
#753=DIRECTION('ref_axis',(0.,0.,-1.));
#754=DIRECTION('',(1.,0.,0.));
#755=DIRECTION('',(0.,0.,-1.));
#756=DIRECTION('',(-1.,0.,0.));
#757=DIRECTION('',(0.,0.,1.));
#758=DIRECTION('center_axis',(0.,0.,-1.));
#759=DIRECTION('ref_axis',(1.,0.,0.));
#760=DIRECTION('',(0.,-1.,0.));
#761=DIRECTION('',(1.,0.,0.));
#762=DIRECTION('',(0.,-1.,0.));
#763=DIRECTION('center_axis',(1.,0.,0.));
#764=DIRECTION('ref_axis',(0.,0.,1.));
#765=DIRECTION('',(0.,-1.,0.));
#766=DIRECTION('',(0.,0.,1.));
#767=DIRECTION('center_axis',(0.,-1.,0.));
#768=DIRECTION('ref_axis',(0.,0.,-1.));
#769=DIRECTION('center_axis',(0.,-1.,0.));
#770=DIRECTION('ref_axis',(-0.707106781186547,0.,-0.707106781186547));
#771=DIRECTION('',(1.,0.,0.));
#772=DIRECTION('center_axis',(0.,-1.,0.));
#773=DIRECTION('ref_axis',(0.707106781186547,0.,-0.707106781186547));
#774=DIRECTION('',(0.,0.,1.));
#775=DIRECTION('center_axis',(0.,-1.,0.));
#776=DIRECTION('ref_axis',(0.707106781186547,0.,0.707106781186547));
#777=DIRECTION('',(-1.,0.,0.));
#778=DIRECTION('center_axis',(0.,-1.,0.));
#779=DIRECTION('ref_axis',(-0.707106781186547,0.,0.707106781186547));
#780=DIRECTION('',(0.,0.,-1.));
#781=DIRECTION('',(1.,0.,0.));
#782=DIRECTION('',(0.,0.,-1.));
#783=DIRECTION('',(-1.,0.,0.));
#784=DIRECTION('',(0.,0.,1.));
#785=DIRECTION('center_axis',(0.,1.,0.));
#786=DIRECTION('ref_axis',(-1.,0.,0.));
#787=DIRECTION('center_axis',(0.,1.,0.));
#788=DIRECTION('ref_axis',(-1.,0.,0.));
#789=DIRECTION('',(0.,-1.,0.));
#790=DIRECTION('center_axis',(0.,-1.,0.));
#791=DIRECTION('ref_axis',(-1.,0.,0.));
#792=DIRECTION('center_axis',(0.,1.,0.));
#793=DIRECTION('ref_axis',(-1.,0.,0.));
#794=DIRECTION('center_axis',(0.,1.,0.));
#795=DIRECTION('ref_axis',(-1.,0.,0.));
#796=DIRECTION('center_axis',(0.,1.,0.));
#797=DIRECTION('ref_axis',(-1.,0.,0.));
#798=DIRECTION('',(0.,-1.,0.));
#799=DIRECTION('center_axis',(0.,-1.,0.));
#800=DIRECTION('ref_axis',(-1.,0.,0.));
#801=DIRECTION('center_axis',(0.,1.,0.));
#802=DIRECTION('ref_axis',(-1.,0.,0.));
#803=DIRECTION('center_axis',(0.,1.,0.));
#804=DIRECTION('ref_axis',(-1.,0.,0.));
#805=DIRECTION('center_axis',(0.,1.,0.));
#806=DIRECTION('ref_axis',(-1.,0.,0.));
#807=DIRECTION('',(0.,-1.,0.));
#808=DIRECTION('center_axis',(0.,-1.,0.));
#809=DIRECTION('ref_axis',(-1.,0.,0.));
#810=DIRECTION('center_axis',(0.,1.,0.));
#811=DIRECTION('ref_axis',(-1.,0.,0.));
#812=DIRECTION('center_axis',(0.,1.,0.));
#813=DIRECTION('ref_axis',(-1.,0.,0.));
#814=DIRECTION('center_axis',(0.,1.,0.));
#815=DIRECTION('ref_axis',(-1.,0.,0.));
#816=DIRECTION('',(0.,-1.,0.));
#817=DIRECTION('center_axis',(0.,-1.,0.));
#818=DIRECTION('ref_axis',(-1.,0.,0.));
#819=DIRECTION('center_axis',(0.,1.,0.));
#820=DIRECTION('ref_axis',(-1.,0.,0.));
#821=DIRECTION('center_axis',(0.,1.,0.));
#822=DIRECTION('ref_axis',(-1.,0.,0.));
#823=DIRECTION('center_axis',(0.,1.,0.));
#824=DIRECTION('ref_axis',(-1.,0.,0.));
#825=DIRECTION('',(0.,-1.,0.));
#826=DIRECTION('center_axis',(0.,-1.,0.));
#827=DIRECTION('ref_axis',(-1.,0.,0.));
#828=DIRECTION('center_axis',(0.,1.,0.));
#829=DIRECTION('ref_axis',(-1.,0.,0.));
#830=DIRECTION('center_axis',(0.,1.,0.));
#831=DIRECTION('ref_axis',(-1.,0.,0.));
#832=DIRECTION('center_axis',(0.,1.,0.));
#833=DIRECTION('ref_axis',(-1.,0.,0.));
#834=DIRECTION('',(0.,-1.,0.));
#835=DIRECTION('center_axis',(0.,-1.,0.));
#836=DIRECTION('ref_axis',(-1.,0.,0.));
#837=DIRECTION('center_axis',(0.,1.,0.));
#838=DIRECTION('ref_axis',(-1.,0.,0.));
#839=DIRECTION('center_axis',(0.,1.,0.));
#840=DIRECTION('ref_axis',(-1.,0.,0.));
#841=DIRECTION('center_axis',(0.,1.,0.));
#842=DIRECTION('ref_axis',(-1.,0.,0.));
#843=DIRECTION('',(0.,-1.,0.));
#844=DIRECTION('center_axis',(0.,-1.,0.));
#845=DIRECTION('ref_axis',(-1.,0.,0.));
#846=DIRECTION('center_axis',(0.,1.,0.));
#847=DIRECTION('ref_axis',(-1.,0.,0.));
#848=DIRECTION('center_axis',(0.,1.,0.));
#849=DIRECTION('ref_axis',(-1.,0.,0.));
#850=DIRECTION('center_axis',(0.,1.,0.));
#851=DIRECTION('ref_axis',(-1.,0.,0.));
#852=DIRECTION('',(0.,-1.,0.));
#853=DIRECTION('center_axis',(0.,-1.,0.));
#854=DIRECTION('ref_axis',(-1.,0.,0.));
#855=DIRECTION('center_axis',(0.,1.,0.));
#856=DIRECTION('ref_axis',(-1.,0.,0.));
#857=DIRECTION('center_axis',(0.,1.,0.));
#858=DIRECTION('ref_axis',(-1.,0.,0.));
#859=DIRECTION('center_axis',(0.,1.,0.));
#860=DIRECTION('ref_axis',(-1.,0.,0.));
#861=DIRECTION('',(0.,-1.,0.));
#862=DIRECTION('center_axis',(0.,-1.,0.));
#863=DIRECTION('ref_axis',(-1.,0.,0.));
#864=DIRECTION('center_axis',(0.,1.,0.));
#865=DIRECTION('ref_axis',(-1.,0.,0.));
#866=DIRECTION('center_axis',(0.,1.,0.));
#867=DIRECTION('ref_axis',(-1.,0.,0.));
#868=DIRECTION('center_axis',(0.,1.,0.));
#869=DIRECTION('ref_axis',(-1.,0.,0.));
#870=DIRECTION('',(0.,-1.,0.));
#871=DIRECTION('center_axis',(0.,-1.,0.));
#872=DIRECTION('ref_axis',(-1.,0.,0.));
#873=DIRECTION('center_axis',(0.,1.,0.));
#874=DIRECTION('ref_axis',(-1.,0.,0.));
#875=DIRECTION('center_axis',(0.,1.,0.));
#876=DIRECTION('ref_axis',(-1.,0.,0.));
#877=DIRECTION('center_axis',(0.,1.,0.));
#878=DIRECTION('ref_axis',(-1.,0.,0.));
#879=DIRECTION('',(0.,-1.,0.));
#880=DIRECTION('center_axis',(0.,-1.,0.));
#881=DIRECTION('ref_axis',(-1.,0.,0.));
#882=DIRECTION('center_axis',(0.,1.,0.));
#883=DIRECTION('ref_axis',(-1.,0.,0.));
#884=DIRECTION('center_axis',(0.,1.,0.));
#885=DIRECTION('ref_axis',(-1.,0.,0.));
#886=DIRECTION('center_axis',(0.,1.,0.));
#887=DIRECTION('ref_axis',(-1.,0.,0.));
#888=DIRECTION('',(0.,-1.,0.));
#889=DIRECTION('center_axis',(0.,-1.,0.));
#890=DIRECTION('ref_axis',(-1.,0.,0.));
#891=DIRECTION('center_axis',(0.,1.,0.));
#892=DIRECTION('ref_axis',(-1.,0.,0.));
#893=DIRECTION('center_axis',(0.,1.,0.));
#894=DIRECTION('ref_axis',(-1.,0.,0.));
#895=DIRECTION('center_axis',(0.,1.,0.));
#896=DIRECTION('ref_axis',(-1.,0.,0.));
#897=DIRECTION('',(0.,-1.,0.));
#898=DIRECTION('center_axis',(0.,-1.,0.));
#899=DIRECTION('ref_axis',(-1.,0.,0.));
#900=DIRECTION('center_axis',(0.,1.,0.));
#901=DIRECTION('ref_axis',(-1.,0.,0.));
#902=DIRECTION('center_axis',(0.,1.,0.));
#903=DIRECTION('ref_axis',(-0.707106781186547,0.,-0.707106781186547));
#904=DIRECTION('center_axis',(0.,-1.,0.));
#905=DIRECTION('ref_axis',(-0.707106781186547,0.,-0.707106781186547));
#906=DIRECTION('',(0.,-1.,0.));
#907=DIRECTION('',(0.,1.,0.));
#908=DIRECTION('center_axis',(0.,0.,-1.));
#909=DIRECTION('ref_axis',(-1.,0.,0.));
#910=DIRECTION('',(-1.,0.,0.));
#911=DIRECTION('',(0.,1.,0.));
#912=DIRECTION('center_axis',(0.,1.,0.));
#913=DIRECTION('ref_axis',(0.,0.,1.));
#914=DIRECTION('',(0.,0.,1.));
#915=DIRECTION('center_axis',(0.,-1.,0.));
#916=DIRECTION('ref_axis',(-0.707106781186547,0.,0.707106781186547));
#917=DIRECTION('',(1.,0.,0.));
#918=DIRECTION('center_axis',(0.,-1.,0.));
#919=DIRECTION('ref_axis',(0.707106781186547,0.,0.707106781186547));
#920=DIRECTION('',(0.,0.,-1.));
#921=DIRECTION('center_axis',(0.,-1.,0.));
#922=DIRECTION('ref_axis',(0.707106781186547,0.,-0.707106781186547));
#923=DIRECTION('',(0.,0.,1.));
#924=DIRECTION('',(-1.,0.,0.));
#925=DIRECTION('',(0.,0.,-1.));
#926=DIRECTION('',(1.,0.,0.));
#927=DIRECTION('center_axis',(0.,1.,0.));
#928=DIRECTION('ref_axis',(0.707106781186547,0.,-0.707106781186547));
#929=DIRECTION('',(0.,-1.,0.));
#930=DIRECTION('center_axis',(1.,0.,0.));
#931=DIRECTION('ref_axis',(0.,0.,-1.));
#932=DIRECTION('',(0.,1.,0.));
#933=DIRECTION('center_axis',(0.,1.,0.));
#934=DIRECTION('ref_axis',(0.707106781186547,0.,0.707106781186547));
#935=DIRECTION('',(0.,-1.,0.));
#936=DIRECTION('center_axis',(0.,0.,1.));
#937=DIRECTION('ref_axis',(1.,0.,0.));
#938=DIRECTION('',(0.,1.,0.));
#939=DIRECTION('center_axis',(0.,1.,0.));
#940=DIRECTION('ref_axis',(-0.707106781186547,0.,0.707106781186547));
#941=DIRECTION('',(0.,-1.,0.));
#942=DIRECTION('center_axis',(1.,0.,0.));
#943=DIRECTION('ref_axis',(0.,0.,1.));
#944=DIRECTION('',(0.,-1.,0.));
#945=DIRECTION('',(0.,-1.,0.));
#946=DIRECTION('center_axis',(0.,0.,-1.));
#947=DIRECTION('ref_axis',(1.,0.,0.));
#948=DIRECTION('',(0.,-1.,0.));
#949=DIRECTION('center_axis',(-1.,0.,0.));
#950=DIRECTION('ref_axis',(0.,0.,-1.));
#951=DIRECTION('',(0.,-1.,0.));
#952=DIRECTION('center_axis',(0.,0.,1.));
#953=DIRECTION('ref_axis',(-1.,0.,0.));
#954=DIRECTION('center_axis',(-1.,0.,0.));
#955=DIRECTION('ref_axis',(0.,0.,1.));
#956=CARTESIAN_POINT('',(0.,0.,0.));
#957=CARTESIAN_POINT('Origin',(-8.67912751724399,-2.5,84.7499165809445));
#958=CARTESIAN_POINT('',(-38.679127517244,-2.5,72.2499165809445));
#959=CARTESIAN_POINT('',(21.320872482756,-2.5,72.2499165809445));
#960=CARTESIAN_POINT('',(-23.679127517244,-2.5,72.2499165809445));
#961=CARTESIAN_POINT('',(-38.679127517244,-2.5,97.2499165809445));
#962=CARTESIAN_POINT('',(-38.679127517244,-2.5,64.6249165809445));
#963=CARTESIAN_POINT('',(21.320872482756,-2.5,97.2499165809445));
#964=CARTESIAN_POINT('',(179.570872482756,-2.5,97.2499165809445));
#965=CARTESIAN_POINT('',(21.320872482756,-2.5,78.4999165809445));
#966=CARTESIAN_POINT('Origin',(-38.679127517244,0.,72.2499165809445));
#967=CARTESIAN_POINT('',(21.320872482756,-5.,72.2499165809445));
#968=CARTESIAN_POINT('',(21.320872482756,0.,72.2499165809445));
#969=CARTESIAN_POINT('',(-38.679127517244,-5.,72.2499165809445));
#970=CARTESIAN_POINT('',(21.320872482756,-5.,72.2499165809445));
#971=CARTESIAN_POINT('',(-38.679127517244,0.,72.2499165809445));
#972=CARTESIAN_POINT('Origin',(21.320872482756,0.,72.2499165809445));
#973=CARTESIAN_POINT('',(21.320872482756,-5.,97.2499165809445));
#974=CARTESIAN_POINT('',(21.320872482756,0.,97.2499165809445));
#975=CARTESIAN_POINT('',(21.320872482756,-5.,97.2499165809445));
#976=CARTESIAN_POINT('Origin',(-8.67912751724399,-5.,84.7499165809445));
#977=CARTESIAN_POINT('',(-43.679127517244,-5.,-33.2500834190555));
#978=CARTESIAN_POINT('',(-38.679127517244,-5.,-38.2500834190555));
#979=CARTESIAN_POINT('Origin',(-38.679127517244,-5.,-33.2500834190555));
#980=CARTESIAN_POINT('',(252.320872482756,-5.,-38.2500834190555));
#981=CARTESIAN_POINT('',(-43.679127517244,-5.,-38.2500834190555));
#982=CARTESIAN_POINT('',(257.320872482756,-5.,-33.2500834190555));
#983=CARTESIAN_POINT('Origin',(252.320872482756,-5.,-33.2500834190555));
#984=CARTESIAN_POINT('',(257.320872482756,-5.,97.2499165809445));
#985=CARTESIAN_POINT('',(257.320872482756,-5.,-38.2500834190555));
#986=CARTESIAN_POINT('',(252.320872482756,-5.,102.249916580945));
#987=CARTESIAN_POINT('Origin',(252.320872482756,-5.,97.2499165809445));
#988=CARTESIAN_POINT('',(-38.679127517244,-5.,102.249916580945));
#989=CARTESIAN_POINT('',(257.320872482756,-5.,102.249916580945));
#990=CARTESIAN_POINT('',(-43.679127517244,-5.,97.2499165809445));
#991=CARTESIAN_POINT('Origin',(-38.679127517244,-5.,97.2499165809445));
#992=CARTESIAN_POINT('',(-43.679127517244,-5.,102.249916580945));
#993=CARTESIAN_POINT('',(252.320872482756,-5.,97.2499165809445));
#994=CARTESIAN_POINT('',(179.570872482756,-5.,97.2499165809445));
#995=CARTESIAN_POINT('',(252.320872482756,-5.,-33.2500834190555));
#996=CARTESIAN_POINT('',(252.320872482756,-5.,-0.625083419055477));
#997=CARTESIAN_POINT('',(-38.679127517244,-5.,-33.2500834190555));
#998=CARTESIAN_POINT('',(34.070872482756,-5.,-33.2500834190555));
#999=CARTESIAN_POINT('',(-38.679127517244,-5.,64.6249165809445));
#1000=CARTESIAN_POINT('Origin',(-41.179127517244,5.,31.9999165809445));
#1001=CARTESIAN_POINT('',(-40.179127517244,10.,31.9999165809445));
#1002=CARTESIAN_POINT('Origin',(-41.179127517244,10.,31.9999165809445));
#1003=CARTESIAN_POINT('',(-40.179127517244,5.,31.9999165809445));
#1004=CARTESIAN_POINT('',(-40.179127517244,5.,31.9999165809445));
#1005=CARTESIAN_POINT('Origin',(-41.179127517244,5.,31.9999165809445));
#1006=CARTESIAN_POINT('Origin',(-41.179127517244,10.,31.9999165809445));
#1007=CARTESIAN_POINT('Origin',(106.820872482756,5.,99.7499165809445));
#1008=CARTESIAN_POINT('',(107.820872482756,10.,99.7499165809445));
#1009=CARTESIAN_POINT('Origin',(106.820872482756,10.,99.7499165809445));
#1010=CARTESIAN_POINT('',(107.820872482756,5.,99.7499165809445));
#1011=CARTESIAN_POINT('',(107.820872482756,5.,99.7499165809445));
#1012=CARTESIAN_POINT('Origin',(106.820872482756,5.,99.7499165809445));
#1013=CARTESIAN_POINT('Origin',(106.820872482756,10.,99.7499165809445));
#1014=CARTESIAN_POINT('Origin',(254.820872482756,5.,-30.7500834190555));
#1015=CARTESIAN_POINT('',(255.820872482756,10.,-30.7500834190555));
#1016=CARTESIAN_POINT('Origin',(254.820872482756,10.,-30.7500834190555));
#1017=CARTESIAN_POINT('',(255.820872482756,5.,-30.7500834190555));
#1018=CARTESIAN_POINT('',(255.820872482756,5.,-30.7500834190555));
#1019=CARTESIAN_POINT('Origin',(254.820872482756,5.,-30.7500834190555));
#1020=CARTESIAN_POINT('Origin',(254.820872482756,10.,-30.7500834190555));
#1021=CARTESIAN_POINT('Origin',(-41.179127517244,5.,-30.7500834190555));
#1022=CARTESIAN_POINT('',(-40.179127517244,10.,-30.7500834190555));
#1023=CARTESIAN_POINT('Origin',(-41.179127517244,10.,-30.7500834190555));
#1024=CARTESIAN_POINT('',(-40.179127517244,5.,-30.7500834190555));
#1025=CARTESIAN_POINT('',(-40.179127517244,5.,-30.7500834190555));
#1026=CARTESIAN_POINT('Origin',(-41.179127517244,5.,-30.7500834190555));
#1027=CARTESIAN_POINT('Origin',(-41.179127517244,10.,-30.7500834190555));
#1028=CARTESIAN_POINT('Origin',(249.820872482756,5.,-35.7500834190555));
#1029=CARTESIAN_POINT('',(250.820872482756,10.,-35.7500834190555));
#1030=CARTESIAN_POINT('Origin',(249.820872482756,10.,-35.7500834190555));
#1031=CARTESIAN_POINT('',(250.820872482756,5.,-35.7500834190555));
#1032=CARTESIAN_POINT('',(250.820872482756,5.,-35.7500834190555));
#1033=CARTESIAN_POINT('Origin',(249.820872482756,5.,-35.7500834190555));
#1034=CARTESIAN_POINT('Origin',(249.820872482756,10.,-35.7500834190555));
#1035=CARTESIAN_POINT('Origin',(254.820872482756,5.,94.7499165809445));
#1036=CARTESIAN_POINT('',(255.820872482756,10.,94.7499165809445));
#1037=CARTESIAN_POINT('Origin',(254.820872482756,10.,94.7499165809445));
#1038=CARTESIAN_POINT('',(255.820872482756,5.,94.7499165809445));
#1039=CARTESIAN_POINT('',(255.820872482756,5.,94.7499165809445));
#1040=CARTESIAN_POINT('Origin',(254.820872482756,5.,94.7499165809445));
#1041=CARTESIAN_POINT('Origin',(254.820872482756,10.,94.7499165809445));
#1042=CARTESIAN_POINT('Origin',(-41.179127517244,5.,70.7499165809445));
#1043=CARTESIAN_POINT('',(-40.179127517244,10.,70.7499165809445));
#1044=CARTESIAN_POINT('Origin',(-41.179127517244,10.,70.7499165809445));
#1045=CARTESIAN_POINT('',(-40.179127517244,5.,70.7499165809445));
#1046=CARTESIAN_POINT('',(-40.179127517244,5.,70.7499165809445));
#1047=CARTESIAN_POINT('Origin',(-41.179127517244,5.,70.7499165809445));
#1048=CARTESIAN_POINT('Origin',(-41.179127517244,10.,70.7499165809445));
#1049=CARTESIAN_POINT('Origin',(-36.179127517244,5.,99.7499165809445));
#1050=CARTESIAN_POINT('',(-35.179127517244,10.,99.7499165809445));
#1051=CARTESIAN_POINT('Origin',(-36.179127517244,10.,99.7499165809445));
#1052=CARTESIAN_POINT('',(-35.179127517244,5.,99.7499165809445));
#1053=CARTESIAN_POINT('',(-35.179127517244,5.,99.7499165809445));
#1054=CARTESIAN_POINT('Origin',(-36.179127517244,5.,99.7499165809445));
#1055=CARTESIAN_POINT('Origin',(-36.179127517244,10.,99.7499165809445));
#1056=CARTESIAN_POINT('Origin',(254.820872482755,5.,31.9999165809445));
#1057=CARTESIAN_POINT('',(255.820872482755,10.,31.9999165809445));
#1058=CARTESIAN_POINT('Origin',(254.820872482755,10.,31.9999165809445));
#1059=CARTESIAN_POINT('',(255.820872482755,5.,31.9999165809445));
#1060=CARTESIAN_POINT('',(255.820872482755,5.,31.9999165809445));
#1061=CARTESIAN_POINT('Origin',(254.820872482755,5.,31.9999165809445));
#1062=CARTESIAN_POINT('Origin',(254.820872482755,10.,31.9999165809445));
#1063=CARTESIAN_POINT('Origin',(-36.179127517244,5.,-35.7500834190555));
#1064=CARTESIAN_POINT('',(-35.179127517244,10.,-35.7500834190555));
#1065=CARTESIAN_POINT('Origin',(-36.179127517244,10.,-35.7500834190555));
#1066=CARTESIAN_POINT('',(-35.179127517244,5.,-35.7500834190555));
#1067=CARTESIAN_POINT('',(-35.179127517244,5.,-35.7500834190555));
#1068=CARTESIAN_POINT('Origin',(-36.179127517244,5.,-35.7500834190555));
#1069=CARTESIAN_POINT('Origin',(-36.179127517244,10.,-35.7500834190555));
#1070=CARTESIAN_POINT('Origin',(106.820872482756,5.,-35.7500834190555));
#1071=CARTESIAN_POINT('',(107.820872482756,10.,-35.7500834190555));
#1072=CARTESIAN_POINT('Origin',(106.820872482756,10.,-35.7500834190555));
#1073=CARTESIAN_POINT('',(107.820872482756,5.,-35.7500834190555));
#1074=CARTESIAN_POINT('',(107.820872482756,5.,-35.7500834190555));
#1075=CARTESIAN_POINT('Origin',(106.820872482756,5.,-35.7500834190555));
#1076=CARTESIAN_POINT('Origin',(106.820872482756,10.,-35.7500834190555));
#1077=CARTESIAN_POINT('Origin',(249.820872482756,5.,99.7499165809445));
#1078=CARTESIAN_POINT('',(250.820872482756,10.,99.7499165809445));
#1079=CARTESIAN_POINT('Origin',(249.820872482756,10.,99.7499165809445));
#1080=CARTESIAN_POINT('',(250.820872482756,5.,99.7499165809445));
#1081=CARTESIAN_POINT('',(250.820872482756,5.,99.7499165809445));
#1082=CARTESIAN_POINT('Origin',(249.820872482756,5.,99.7499165809445));
#1083=CARTESIAN_POINT('Origin',(249.820872482756,10.,99.7499165809445));
#1084=CARTESIAN_POINT('Origin',(-41.179127517244,5.,94.7499165809445));
#1085=CARTESIAN_POINT('',(-40.179127517244,10.,94.7499165809445));
#1086=CARTESIAN_POINT('Origin',(-41.179127517244,10.,94.7499165809445));
#1087=CARTESIAN_POINT('',(-40.179127517244,5.,94.7499165809445));
#1088=CARTESIAN_POINT('',(-40.179127517244,5.,94.7499165809445));
#1089=CARTESIAN_POINT('Origin',(-41.179127517244,5.,94.7499165809445));
#1090=CARTESIAN_POINT('Origin',(-41.179127517244,10.,94.7499165809445));
#1091=CARTESIAN_POINT('Origin',(-38.679127517244,0.,-33.2500834190555));
#1092=CARTESIAN_POINT('',(-43.679127517244,5.,-33.2500834190555));
#1093=CARTESIAN_POINT('',(-38.679127517244,5.,-38.2500834190555));
#1094=CARTESIAN_POINT('Origin',(-38.679127517244,5.,-33.2500834190555));
#1095=CARTESIAN_POINT('',(-38.679127517244,0.,-38.2500834190555));
#1096=CARTESIAN_POINT('',(-43.679127517244,0.,-33.2500834190555));
#1097=CARTESIAN_POINT('Origin',(257.320872482756,0.,-38.2500834190555));
#1098=CARTESIAN_POINT('',(252.320872482756,5.,-38.2500834190555));
#1099=CARTESIAN_POINT('',(-43.679127517244,5.,-38.2500834190555));
#1100=CARTESIAN_POINT('',(252.320872482756,0.,-38.2500834190555));
#1101=CARTESIAN_POINT('Origin',(106.820872482756,5.,31.9999165809445));
#1102=CARTESIAN_POINT('',(-43.679127517244,5.,97.2499165809445));
#1103=CARTESIAN_POINT('',(-43.679127517244,5.,102.249916580945));
#1104=CARTESIAN_POINT('',(-38.679127517244,5.,102.249916580945));
#1105=CARTESIAN_POINT('Origin',(-38.679127517244,5.,97.2499165809445));
#1106=CARTESIAN_POINT('',(252.320872482756,5.,102.249916580945));
#1107=CARTESIAN_POINT('',(257.320872482756,5.,102.249916580945));
#1108=CARTESIAN_POINT('',(257.320872482756,5.,97.2499165809445));
#1109=CARTESIAN_POINT('Origin',(252.320872482756,5.,97.2499165809445));
#1110=CARTESIAN_POINT('',(257.320872482756,5.,-33.2500834190555));
#1111=CARTESIAN_POINT('',(257.320872482756,5.,-38.2500834190555));
#1112=CARTESIAN_POINT('Origin',(252.320872482756,5.,-33.2500834190555));
#1113=CARTESIAN_POINT('',(252.320872482756,5.,-33.2500834190555));
#1114=CARTESIAN_POINT('',(252.320872482756,5.,97.2499165809445));
#1115=CARTESIAN_POINT('',(252.320872482756,5.,-0.625083419055477));
#1116=CARTESIAN_POINT('',(-38.679127517244,5.,97.2499165809445));
#1117=CARTESIAN_POINT('',(179.570872482756,5.,97.2499165809445));
#1118=CARTESIAN_POINT('',(-38.679127517244,5.,-33.2500834190555));
#1119=CARTESIAN_POINT('',(-38.679127517244,5.,64.6249165809445));
#1120=CARTESIAN_POINT('',(34.070872482756,5.,-33.2500834190555));
#1121=CARTESIAN_POINT('Origin',(252.320872482756,0.,-33.2500834190555));
#1122=CARTESIAN_POINT('',(257.320872482756,0.,-33.2500834190555));
#1123=CARTESIAN_POINT('Origin',(257.320872482756,0.,102.249916580945));
#1124=CARTESIAN_POINT('',(257.320872482756,0.,97.2499165809445));
#1125=CARTESIAN_POINT('Origin',(252.320872482756,0.,97.2499165809445));
#1126=CARTESIAN_POINT('',(252.320872482756,0.,102.249916580945));
#1127=CARTESIAN_POINT('Origin',(-43.679127517244,0.,102.249916580945));
#1128=CARTESIAN_POINT('',(-38.679127517244,0.,102.249916580945));
#1129=CARTESIAN_POINT('Origin',(-38.679127517244,0.,97.2499165809445));
#1130=CARTESIAN_POINT('',(-43.679127517244,0.,97.2499165809445));
#1131=CARTESIAN_POINT('Origin',(252.320872482756,5.,-33.2500834190555));
#1132=CARTESIAN_POINT('',(252.320872482756,0.,-33.2500834190555));
#1133=CARTESIAN_POINT('',(252.320872482756,5.,97.2499165809445));
#1134=CARTESIAN_POINT('Origin',(-38.679127517244,5.,-33.2500834190555));
#1135=CARTESIAN_POINT('',(-38.679127517244,0.,-33.2500834190555));
#1136=CARTESIAN_POINT('Origin',(-38.679127517244,5.,97.2499165809445));
#1137=CARTESIAN_POINT('',(-38.679127517244,0.,97.2499165809445));
#1138=CARTESIAN_POINT('Origin',(252.320872482756,5.,97.2499165809445));
#1139=CARTESIAN_POINT('Origin',(-43.679127517244,0.,-38.2500834190555));
#1140=UNCERTAINTY_MEASURE_WITH_UNIT(LENGTH_MEASURE(0.01),#1144,
'DISTANCE_ACCURACY_VALUE',
'Maximum model space distance between geometric entities at asserted c
onnectivities');
#1141=UNCERTAINTY_MEASURE_WITH_UNIT(LENGTH_MEASURE(0.01),#1144,
'DISTANCE_ACCURACY_VALUE',
'Maximum model space distance between geometric entities at asserted c
onnectivities');
#1142=(
GEOMETRIC_REPRESENTATION_CONTEXT(3)
GLOBAL_UNCERTAINTY_ASSIGNED_CONTEXT((#1140))
GLOBAL_UNIT_ASSIGNED_CONTEXT((#1144,#1146,#1147))
REPRESENTATION_CONTEXT('','3D')
);
#1143=(
GEOMETRIC_REPRESENTATION_CONTEXT(3)
GLOBAL_UNCERTAINTY_ASSIGNED_CONTEXT((#1141))
GLOBAL_UNIT_ASSIGNED_CONTEXT((#1144,#1146,#1147))
REPRESENTATION_CONTEXT('','3D')
);
#1144=(
LENGTH_UNIT()
NAMED_UNIT(*)
SI_UNIT(.MILLI.,.METRE.)
);
#1145=(
LENGTH_UNIT()
NAMED_UNIT(*)
SI_UNIT($,.METRE.)
);
#1146=(
NAMED_UNIT(*)
PLANE_ANGLE_UNIT()
SI_UNIT($,.RADIAN.)
);
#1147=(
NAMED_UNIT(*)
SI_UNIT($,.STERADIAN.)
SOLID_ANGLE_UNIT()
);
#1148=SHAPE_DEFINITION_REPRESENTATION(#1149,#1150);
#1149=PRODUCT_DEFINITION_SHAPE('',$,#1152);
#1150=SHAPE_REPRESENTATION('',(#672),#1142);
#1151=PRODUCT_DEFINITION_CONTEXT('part definition',#1156,'design');
#1152=PRODUCT_DEFINITION('2026-08-09-12-13-10-511','Top_Case',#1153,#1151);
#1153=PRODUCT_DEFINITION_FORMATION('',$,#1158);
#1154=PRODUCT_RELATED_PRODUCT_CATEGORY('Top_Case','Top_Case',(#1158));
#1155=APPLICATION_PROTOCOL_DEFINITION('international standard',
'automotive_design',2009,#1156);
#1156=APPLICATION_CONTEXT(
'Core Data for Automotive Mechanical Design Process');
#1157=PRODUCT_CONTEXT('part definition',#1156,'mechanical');
#1158=PRODUCT('2026-08-09-12-13-10-511','Top_Case',$,(#1157));
#1159=PRESENTATION_STYLE_ASSIGNMENT((#1160));
#1160=SURFACE_STYLE_USAGE(.BOTH.,#1161);
#1161=SURFACE_SIDE_STYLE('',(#1162));
#1162=SURFACE_STYLE_FILL_AREA(#1163);
#1163=FILL_AREA_STYLE('Steel - Satin',(#1164));
#1164=FILL_AREA_STYLE_COLOUR('Steel - Satin',#1165);
#1165=COLOUR_RGB('Steel - Satin',0.627450980392157,0.627450980392157,0.627450980392157);
ENDSEC;
END-ISO-10303-21;
